<?xml version="1.0" encoding="UTF-8"?>
<svg id="Layer_2" data-name="Layer 2" xmlns="http://www.w3.org/2000/svg" viewBox="0 0 364.57 96.78">
  <defs>
    <style>
      .cls-1 {
        fill: #69725d;
      }
    </style>
  </defs>
  <g id="Layer_1-2" data-name="Layer 1">
    <g>
      <path class="cls-1" d="m38.31,37.64c.38-.44.76-.95,1.08-1.4.44-.7.89-1.33,1.33-2.03.95-1.33,1.78-2.73,2.6-4.19,1.71-3.05,3.24-6.22,4.57-9.46,1.27-3.3,2.29-6.67,3.11-10.09.06-.19.13-.44.19-.7.51-1.71.76-3.36-.76-4.32-1.71-.7-3.68.44-5.21,1.65-.19.13-.32.25-.44.32-4.76,3.36-9.14,7.55-13.01,12.5-3.87,4.89-7.3,9.9-10.28,14.92-6.54,10.35-12,21.96-14.03,34.09-1.02,6.03-1.02,12.76,2.03,18.15,2.09,3.17,5.08,4.57,9.08,4.19s8.51-2.54,13.52-6.47c5.01-4,9.9-8.89,14.6-14.79s7.49-9.01,8.32-9.46c.89-.44,1.78-.44,2.73,0,.95.38,1.21,1.14.76,2.35-6.16,8.32-12.82,15.93-19.87,22.85-6.28,5.9-13.52,10.22-22.22,10.98C-2.19,97.88-1.55,74.52,1.94,62.27c4.76-15.81,13.08-30.6,23.55-43.35,5.08-6.28,10.66-12.38,17.71-16.38C47.77,0,57.92-2.6,58.75,5.27c.25,3.3-.83,6.92-2.03,10.16l-.57,1.52c-1.27,3.87-2.86,7.68-4.76,11.3-1.97,3.75-4.19,7.36-6.73,10.73-1.84,2.54-3.87,4.25-7.17,3.94-1.27-.06-2.29-.83-2.35-2.09v-.38c.06-1.02.7-1.78,1.9-2.29.38-.19.76-.32,1.14-.38l.13-.13Z"/>
      <path class="cls-1" d="m94.49,65.32c-10.54,9.46-18.47,15.17-23.74,17.2-5.14,2.03-9.97,2.29-15.74.7-2.6-.83-4.32-2.35-5.01-4.57s-.76-4.63-.19-7.17c1.27-5.21,4-10.03,8.25-14.47s8.63-8,13.27-10.66c4.25-2.54,8.89-3.87,13.9-2.6,5.33,1.46,2.6,7.17.25,10.16-3.36,3.87-7.24,6.54-11.74,7.87s-9.27,2.03-14.28,2.09c-.32.57-.63,1.21-.95,1.78-1.08,2.09-1.84,4.57-2.16,7.36-.32,2.73.63,4.89,2.79,6.47,1.78.95,3.81,1.02,6.03.25,2.29-.76,4.38-1.65,6.28-2.73.57-.32,1.02-.57,1.46-.76,7.62-4.7,12.63-7.93,14.98-9.78s4-2.73,4.82-2.73c.76,0,2.79.32,1.78,1.59Zm-27.55-10.47c-1.84,1.78-3.62,3.68-5.27,5.71,4.51,0,9.33-.76,11.93-2.09s4.13-3.11,6.16-5.9c2.09-2.79,2.41-5.21-.63-5.97-1.46-.38-3.3.32-5.46,2.03s-4,3.43-5.59,5.08l-1.14,1.14Z"/>
      <path class="cls-1" d="m124.83,60.18c-3.62,1.33-7.3,1.21-9.58-2.29-.44-.76-.76-1.65-.95-2.6-.25-1.21-.7-2.22-1.33-3.05-.95-.95-1.9-1.14-2.79-.44-.83.63-1.59,1.46-2.22,2.48-.13.19-.25.32-.38.51-5.21,6.98-9.33,15.93-12.31,26.85-.19.95-.44,1.84-.63,2.73-.25,1.08-.51,2.09-.7,3.11-.7,2.86-7.81,4-7.17.63.38-2.03.83-4.06,1.4-6.03,3.24-13.39,6.16-25.58,8.7-36.56.63-2.86,7.68-4,7.17-.63-.13.7-.25,1.33-.38,1.97-.13.83-.25,1.59-.38,2.41-.06.38-.25.76-.51,1.08-.06.25-.13.51-.19.83s-.19.7-.25,1.02c2.86-3.75,6.86-6.41,11.68-6.09,2.35.19,4.19,1.27,5.52,3.11.63.95,2.98,6.79,2.29,7.17,1.46-.57,3.75-.95,4.82.38.76,1.46-.32,2.92-1.78,3.43Z"/>
      <path class="cls-1" d="m167.23,65.32c-10.54,9.46-18.47,15.17-23.74,17.2-5.14,2.03-9.97,2.29-15.74.7-2.6-.83-4.32-2.35-5.01-4.57s-.76-4.63-.19-7.17c1.27-5.21,4-10.03,8.25-14.47s8.63-8,13.27-10.66c4.25-2.54,8.89-3.87,13.9-2.6,5.33,1.46,2.6,7.17.25,10.16-3.36,3.87-7.24,6.54-11.74,7.87s-9.27,2.03-14.28,2.09c-.32.57-.63,1.21-.95,1.78-1.08,2.09-1.84,4.57-2.16,7.36-.32,2.73.63,4.89,2.79,6.47,1.78.95,3.81,1.02,6.03.25,2.29-.76,4.38-1.65,6.28-2.73.57-.32,1.02-.57,1.46-.76,7.62-4.7,12.63-7.93,14.98-9.78s4-2.73,4.82-2.73c.76,0,2.79.32,1.78,1.59Zm-27.55-10.47c-1.84,1.78-3.62,3.68-5.27,5.71,4.51,0,9.33-.76,11.93-2.09s4.13-3.11,6.16-5.9c2.09-2.79,2.41-5.21-.63-5.97-1.46-.38-3.3.32-5.46,2.03s-4,3.43-5.59,5.08l-1.14,1.14Z"/>
      <path class="cls-1" d="m231.28,68.87c-2.86,3.11-6.28,5.59-10.22,7.3-1.27.63-2.79,1.21-4.51,1.78-1.71.51-3.36.57-4.82.13-1.46-.63-2.35-1.84-2.6-3.55-.25-1.78-.32-3.36-.25-4.82,0-.06,0-.13.06-.19,0-.57,0-1.14.06-1.71.25-2.79.25-5.71-1.08-8.19-4.63,3.11-8.32,7.87-11.43,12.5-.63.95-1.27,1.97-1.97,3.11-2.22,3.81-4.7,7.62-8.44,9.14-5.14,1.97-8.32.06-7.55-5.52.95-5.46,2.09-10.85,3.43-16.25.06-.38.19-.76.25-1.21-.57,1.21-1.14,2.29-1.65,3.36-.44,1.08-.89,1.9-1.21,2.54-2.48,4.38-4.89,8.7-7.3,13.08-1.71,3.36-3.62,6.22-5.84,8.63s-5.33,3.75-9.33,4h-.06c-.44.13-1.9.13-1.9-.51-.19-6.92,1.84-13.96,4.06-20.63.32-.95.63-1.9.89-2.86,2.35-7.55,5.01-15.04,8-22.47-.32-.06-.44-.19-.38-.38.44-.76.95-1.52,1.46-2.29.95-1.46,7.55-2.73,6.98-1.27-3.17,7.81-6.03,15.68-8.57,23.68-.32,1.08-.7,2.16-1.02,3.24-1.84,5.59-3.68,11.43-4.25,17.27.32-.44.51-.83.63-1.02l2.29-4.19c.38-.7.76-1.33,1.14-2.03,1.21-2.09,2.35-4.13,3.49-6.22s2.29-4.13,3.43-6.22l.76-1.33c1.52-2.98,3.24-5.59,5.14-7.93s4.57-4.06,8-5.01c.57-.19,4-.89,3.81.51-.83,3.62-1.59,7.3-2.35,10.92-.76,3.43-1.52,6.86-2.22,10.28-.06.38-.19.76-.25,1.08-.32,1.21-.51,2.35-.51,3.55v.13c.7-.95,1.33-1.97,2.03-2.98,2.79-4.32,5.84-8.25,9.2-11.81,3.36-3.62,7.43-6.41,12.31-8.38.95-.38,3.55-1.14,4.57-.38,2.73,3.05,2.79,6.6,2.48,10.41-.06.89-.06,1.78-.06,2.6-.06,1.33.06,2.6.32,3.87,0-.13.63,2.54.44,2.73,1.33.63,7.43-5.21,8.06-5.97,1.08-1.08,3.24-1.71,4.76-1.71.76,0,2.73.06,1.71,1.21Z"/>
      <path class="cls-1" d="m263.4,59.54c-1.84,2.03-4.63,3.11-8.25,3.24-.57.06-1.46.06-2.6.06-.7,3.75-2.03,7.43-3.87,11.04-1.84,3.55-3.68,6.47-5.46,8.76-3.24,4.32-7.3,8.06-12.82,8.82-5.14.51-8.63-2.48-8.89-7.62-.19-5.14,1.02-10.03,3.55-14.6s5.84-8.44,9.84-11.62c-1.46-2.22-1.14-4.51,1.08-6.86,3.55-3.11,8.82-3.62,12.63-.76,2.54,2.16,3.94,4.82,4.13,8,2.6.57,4.63.7,5.97.44,1.33-.32,2.41-.7,3.24-1.27s1.52-.63,2.09-.13c.51.51.57,1.21-.63,2.48Zm-18.09,2.73c-2.22-.32-4.32-.83-6.28-1.59-5.9,5.14-9.33,11.62-10.28,19.49-.25,1.78-.44,4.76,1.08,6.09,1.08.7,2.16.57,3.24-.32s1.97-1.84,2.67-2.79c.13-.13.25-.25.38-.44,3.3-4.06,5.84-8.57,7.62-13.58.83-2.09,1.33-4.38,1.59-6.86Zm-3.55-6.98v.06h.06c.63.19,1.08.51,1.33.95.51.19,1.02.32,1.59.38-.19-.57-.51-1.14-.83-1.65-.25-.57-1.46-2.09-2.16-2.09-1.08.25-.63,1.59,0,2.35Z"/>
      <path class="cls-1" d="m280.47,85.25c-.89-3.49-.95-7.62-.13-12.25-11.87,13.33-18.54,19.8-19.93,19.36-4-1.02-6.22-2.79-6.6-5.33-.32-2.6-.19-5.27.38-8.12.63-2.86,1.27-5.14,1.9-6.86,3.05-8.12,6.92-15.81,11.62-23.11,1.27-1.97,8.32-2.67,6.6.13-3.62,5.78-6.79,11.74-9.52,17.96-1.33,2.86-2.41,5.97-3.3,9.39-.83,3.36-.89,6.67-.19,9.78l22.47-26.34c1.02-1.52,7.68-2.73,6.86-.38-.38.83-.95,2.54-1.78,5.01-.76,2.48-1.4,5.08-1.9,7.93s-.7,5.9-.63,9.14c.13,3.24,1.21,4.63,3.24,4.19,1.02-.19,2.54-1.27,4.51-3.36,2.03-2.09,4.76-5.71,8.25-10.79,1.27-1.33,2.03-1.14,2.22.57s-1.02,4.44-3.75,8.25-5.01,6.41-6.92,7.87c-1.84,1.4-4,2.03-6.41,1.97-3.75.19-6.03-1.52-6.98-5.01Z"/>
      <path class="cls-1" d="m325.41,72.93c-3.81,4.89-8.38,8.95-13.65,12.12-1.84,1.08-4,1.9-6.6,2.48-2.54.51-4.63-.13-6.22-1.97-1.21-1.9-1.65-4.25-1.27-7.11.44-2.86,1.02-5.46,1.71-7.81.13-.44.25-.83.32-1.14,1.84-6.92,4.76-13.33,8.7-19.3.95-1.27,2.67-1.84,4.13-2.03.44-.13,3.55-.19,2.92.89-5.27,8-8.7,16.76-10.16,26.22,0,.19,0,.38-.06.57-.44,2.03-.51,4-.06,5.9.13.51.89,2.16,1.21,2.41.51.19,1.46-.51,2.29-1.08.19-.13.32-.25.44-.32,3.75-2.67,6.98-5.84,9.84-9.46,1.14-1.46,7.93-2.35,6.47-.38Zm-13.08-34.59c-.32-1.71.06-3.36,1.14-4.82,1.08-1.52,2.41-2.6,3.87-3.24.44-.19.89-.38,1.4-.44.63-.51,1.97-.44,4.06.13,1.46.63,2.09,1.52,1.9,2.73-.32,2.29-1.02,3.43-2.54,4.76-1.33,1.33-2.92,2.29-4.7,2.86-2.03.57-4.38.25-5.14-1.97Z"/>
      <path class="cls-1" d="m353.72,64.43c-2.16,7.43-2.79,11.93-1.97,13.46.89,1.46,1.71,1.9,2.54,1.27,2.35-1.84,5.27-5.84,7.87-5.71,1.08.13,2.92.7,1.9,2.09-3.24,4.63-7.49,8.57-12.57,9.39-2.6.25-4.44-.51-5.52-2.29s-1.65-3.87-1.71-6.22c-.06-2.09.06-4.25.38-6.35-2.09,2.6-4.25,5.08-6.47,7.49-1.71,1.97-3.81,3.94-6.35,5.78-2.48,1.84-5.14,2.6-8,2.29-5.21-1.02-3.55-9.71-2.79-13.39,1.4-6.16,4.13-11.62,8.25-16.44s8.89-8.76,14.28-11.87c1.97-1.21,4.19-2.03,6.6-2.54,2.41-.57,4.7-.25,6.92.83.32.19.57.38.83.57,1.71-1.71,8.12-2.16,6.35.38-4.89,6.67-8.38,13.77-10.54,21.26Zm-11.11-.32c2.98-4,5.97-8,8.82-12.12-.83-.95-.44-1.9.83-2.6,1.71-1.21-.57-3.36-1.71-3.75-1.78-.32-3.55.76-5.14,2.03-.25.19-.51.32-.7.51-3.55,2.48-6.67,5.33-9.39,8.63-5.33,6.54-7.55,13.77-7.74,22.09.44,2.09,1.02,1.65,2.09.38.19-.19.32-.32.51-.44,1.46-1.46,2.92-3.05,4.25-4.63,2.86-3.3,5.59-6.67,8.19-10.09Z"/>
    </g>
  </g>
</svg>