<?xml version="1.0" encoding="UTF-8"?>
<svg id="Layer_2" data-name="Layer 2" xmlns="http://www.w3.org/2000/svg" viewBox="0 0 301.52 159.49">
  <defs>
    <style>
      .cls-1 {
        fill: #f5ece3;
      }
    </style>
  </defs>
  <g id="Layer_1-2" data-name="Layer 1">
    <g>
      <path class="cls-1" d="m64.04,69.49c-1.05.53-2.33.83-3.43.7-10.28-1.54-20.57-1.67-30.89-.4-4.09.44-8.13,1.23-12.08,2.33l-.13.53-.13.66c-.4,1.63-4.53,2.64-4.92.92-4,2.02-9.71,5.54-6.46,7.08.7.35-1.27,1.27-1.49,1.27-.88.35-2.15.7-3.16.35-5.01-2.29,5.58-8.09,7.29-8.92,1.27-.62,2.55-1.19,3.91-1.67v-.04c.04-.48.04-1.01.09-1.54.04-.44.31-.79.7-1.1,2.86-11.91,6.77-23.42,10.81-34.98,2.55-7.21,4.97-14.46,7.21-21.8-7.6,8.13-12.66,17.71-15.16,28.65-.44,1.89-5.41,2.55-4.97.53,3.43-14.55,10.9-26.54,22.37-36.04.66-.53,5.05-1.93,4.48.26-2.68,9.4-5.67,18.72-8.96,27.91-4.22,11.95-8.31,24.04-11.16,36.39,2.33-.57,4.61-1.1,6.94-1.54,13.23-2.42,26.46-2.68,39.77-.7,1.05.22-.26,1.01-.62,1.14Z"/>
      <path class="cls-1" d="m66.46,49.1c-1.49,5.14-1.93,8.26-1.36,9.32.62,1.01,1.19,1.32,1.76.88,1.63-1.27,3.65-4.04,5.45-3.96.75.09,2.02.48,1.32,1.45-2.24,3.21-5.19,5.93-8.7,6.5-1.8.18-3.08-.35-3.82-1.58s-1.14-2.68-1.19-4.31c-.04-1.45.04-2.94.26-4.39-1.45,1.8-2.94,3.52-4.48,5.19-1.19,1.36-2.64,2.72-4.39,4-1.71,1.27-3.56,1.8-5.54,1.58-3.6-.7-2.46-6.72-1.93-9.27.97-4.26,2.86-8.04,5.71-11.38s6.15-6.06,9.89-8.22c1.36-.83,2.9-1.41,4.57-1.76,1.67-.4,3.25-.18,4.79.57.22.13.4.26.57.4,1.19-1.19,5.62-1.49,4.39.26-3.38,4.61-5.8,9.54-7.29,14.72Zm-7.69-.22c2.07-2.77,4.13-5.54,6.11-8.39-.57-.66-.31-1.32.57-1.8,1.19-.83-.4-2.33-1.19-2.59-1.23-.22-2.46.53-3.56,1.41-.18.13-.35.22-.48.35-2.46,1.71-4.61,3.69-6.5,5.98-3.69,4.53-5.23,9.54-5.36,15.29.31,1.45.7,1.14,1.45.26.13-.13.22-.22.35-.31,1.01-1.01,2.02-2.11,2.94-3.21,1.98-2.29,3.87-4.61,5.67-6.99Z"/>
      <path class="cls-1" d="m141.87,24.53c-3.12,4.7-7.03,8.75-11.82,12.08-4.79,3.3-9.8,5.89-15.12,7.69-3.12,1.1-6.33,1.89-9.62,2.42-.57.13-1.19.22-1.8.35-.31.04-.57.13-.83.18-.53,1.41-1.01,2.81-1.49,4.26-1.76,5.27-3.25,10.59-4.48,16-.66,2.77-1.19,5.58-1.67,8.39-.4,2.11-.48,4.31,1.23,5.76,1.23,1.1-3.21,2.81-4.57,1.89-1.45-1.36-2.07-3.12-1.89-5.27.13-2.15.53-4.22,1.1-6.2.18-.7.35-1.36.48-1.93,1.23-5.76,2.77-11.43,4.57-17.01.62-1.89,1.27-3.74,1.93-5.54-1.63-.22-3.08-1.23-2.33-2.99.75-1.54,2.64-2.07,4.26-2.02,3.08-7.56,6.68-14.85,10.77-21.93.83-1.27,5.62-1.89,4.53.04-4.35,7.51-8.13,15.34-11.25,23.47.35-.04.7-.13,1.1-.18.79-.13,1.58-.26,2.33-.4,2.77-.57,5.49-1.36,8.13-2.37,4.61-1.8,8.83-4.22,12.74-7.29,6.24-4.88,13.54-12.52,11.95-21.18-.66-3.12-2.11-5.41-4.44-6.86s-4.97-2.33-7.95-2.64c-2.94-.31-5.76-.31-8.44,0-8.92,1.1-16.48,4.61-22.76,10.55-6.24,5.93-10.37,13.18-12.39,21.84-.44,1.8-5.36,2.5-4.92.57,1.45-6.24,4.04-11.91,7.78-17.05s8.35-9.36,13.89-12.57c4.83-2.77,10.06-4.7,15.69-5.8s11.16-1.05,16.66.04c4.97,1.05,9.4,3.69,11.29,8.57,1.76,5.23.35,10.59-2.64,15.12Z"/>
      <path class="cls-1" d="m157.91,46.15c-2.5.92-5.05.83-6.64-1.58-.31-.53-.53-1.14-.66-1.8-.18-.83-.48-1.54-.92-2.11-.66-.66-1.32-.79-1.93-.31-.57.44-1.1,1.01-1.54,1.71-.09.13-.18.22-.26.35-3.6,4.83-6.46,11.03-8.53,18.59-.13.66-.31,1.27-.44,1.89-.18.75-.35,1.45-.48,2.15-.48,1.98-5.41,2.77-4.97.44.26-1.41.57-2.81.97-4.17,2.24-9.27,4.26-17.71,6.02-25.31.44-1.98,5.32-2.77,4.97-.44-.09.48-.18.92-.26,1.36-.09.57-.18,1.1-.26,1.67-.04.26-.18.53-.35.75-.04.18-.09.35-.13.57s-.13.48-.18.7c1.98-2.59,4.75-4.44,8.09-4.22,1.63.13,2.9.88,3.82,2.15.44.66,2.07,4.7,1.58,4.97,1.01-.4,2.59-.66,3.34.26.53,1.01-.22,2.02-1.23,2.37Z"/>
      <path class="cls-1" d="m176.72,54.99c-2.64,3.38-5.8,6.2-9.45,8.39-1.27.75-2.77,1.32-4.57,1.71-1.76.35-3.21-.09-4.31-1.36-.83-1.32-1.14-2.94-.88-4.92.31-1.98.7-3.78,1.19-5.41.09-.31.18-.57.22-.79,1.27-4.79,3.3-9.23,6.02-13.36.66-.88,1.85-1.27,2.86-1.41.31-.09,2.46-.13,2.02.62-3.65,5.54-6.02,11.6-7.03,18.15,0,.13,0,.26-.04.4-.31,1.41-.35,2.77-.04,4.09.09.35.62,1.49.83,1.67.35.13,1.01-.35,1.58-.75.13-.09.22-.18.31-.22,2.59-1.85,4.83-4.04,6.81-6.55.79-1.01,5.49-1.63,4.48-.26Zm-9.05-23.95c-.22-1.19.04-2.33.79-3.34.75-1.05,1.67-1.8,2.68-2.24.31-.13.62-.26.97-.31.44-.35,1.36-.31,2.81.09,1.01.44,1.45,1.05,1.32,1.89-.22,1.58-.7,2.37-1.76,3.3-.92.92-2.02,1.58-3.25,1.98-1.41.4-3.03.18-3.56-1.36Z"/>
      <path class="cls-1" d="m224.27,52.17c-1.98,2.15-4.35,3.87-7.08,5.05-.88.44-1.93.83-3.12,1.23-1.19.35-2.33.4-3.34.09-1.01-.44-1.63-1.27-1.8-2.46-.18-1.23-.22-2.33-.18-3.34,0-.04,0-.09.04-.13,0-.4,0-.79.04-1.19.18-1.93.18-3.96-.75-5.67-3.21,2.15-5.76,5.45-7.91,8.66-.44.66-.88,1.36-1.36,2.15-1.54,2.64-3.25,5.27-5.84,6.33-3.56,1.36-5.76.04-5.23-3.82.66-3.78,1.45-7.51,2.37-11.25.04-.26.13-.53.18-.83-.4.83-.79,1.58-1.14,2.33-.31.75-.62,1.32-.83,1.76-1.71,3.03-3.38,6.02-5.05,9.05-1.19,2.33-2.5,4.31-4.04,5.98s-3.69,2.59-6.46,2.77h-.04c-.31.09-1.32.09-1.32-.35-.13-4.79,1.27-9.67,2.81-14.28.22-.66.44-1.32.62-1.98,1.63-5.23,3.47-10.42,5.54-15.56-.22-.04-.31-.13-.26-.26.31-.53.66-1.05,1.01-1.58.66-1.01,5.23-1.89,4.83-.88-2.2,5.41-4.17,10.85-5.93,16.39-.22.75-.48,1.49-.7,2.24-1.27,3.87-2.55,7.91-2.94,11.95.22-.31.35-.57.44-.7l1.58-2.9c.26-.48.53-.92.79-1.41.83-1.45,1.63-2.86,2.42-4.31s1.58-2.86,2.37-4.31l.53-.92c1.05-2.07,2.24-3.87,3.56-5.49s3.16-2.81,5.54-3.47c.4-.13,2.77-.62,2.64.35-.57,2.5-1.1,5.05-1.63,7.56-.53,2.37-1.05,4.75-1.54,7.12-.04.26-.13.53-.18.75-.22.83-.35,1.63-.35,2.46v.09c.48-.66.92-1.36,1.41-2.07,1.93-2.99,4.04-5.71,6.37-8.17,2.33-2.5,5.14-4.44,8.53-5.8.66-.26,2.46-.79,3.16-.26,1.89,2.11,1.93,4.57,1.71,7.21-.04.62-.04,1.23-.04,1.8-.04.92.04,1.8.22,2.68,0-.09.44,1.76.31,1.89.92.44,5.14-3.6,5.58-4.13.75-.75,2.24-1.19,3.3-1.19.53,0,1.89.04,1.19.83Z"/>
      <path class="cls-1" d="m251.16,49.71c-7.29,6.55-12.79,10.5-16.44,11.91-3.56,1.41-6.9,1.58-10.9.48-1.8-.57-2.99-1.63-3.47-3.16s-.53-3.21-.13-4.97c.88-3.6,2.77-6.94,5.71-10.02s5.98-5.54,9.18-7.38c2.94-1.76,6.15-2.68,9.62-1.8,3.69,1.01,1.8,4.97.18,7.03-2.33,2.68-5.01,4.53-8.13,5.45s-6.42,1.41-9.89,1.45c-.22.4-.44.83-.66,1.23-.75,1.45-1.27,3.16-1.49,5.1-.22,1.89.44,3.38,1.93,4.48,1.23.66,2.64.7,4.17.18,1.58-.53,3.03-1.14,4.35-1.89.4-.22.7-.4,1.01-.53,5.27-3.25,8.75-5.49,10.37-6.77s2.77-1.89,3.34-1.89c.53,0,1.93.22,1.23,1.1Zm-19.07-7.25c-1.27,1.23-2.5,2.55-3.65,3.96,3.12,0,6.46-.53,8.26-1.45s2.86-2.15,4.26-4.09c1.45-1.93,1.67-3.6-.44-4.13-1.01-.26-2.29.22-3.78,1.41s-2.77,2.37-3.87,3.52l-.79.79Z"/>
      <path class="cls-1" d="m272.17,46.15c-2.5.92-5.05.83-6.64-1.58-.31-.53-.53-1.14-.66-1.8-.18-.83-.48-1.54-.92-2.11-.66-.66-1.32-.79-1.93-.31-.57.44-1.1,1.01-1.54,1.71-.09.13-.18.22-.26.35-3.6,4.83-6.46,11.03-8.53,18.59-.13.66-.31,1.27-.44,1.89-.18.75-.35,1.45-.48,2.15-.48,1.98-5.41,2.77-4.97.44.26-1.41.57-2.81.97-4.17,2.24-9.27,4.26-17.71,6.02-25.31.44-1.98,5.32-2.77,4.97-.44-.09.48-.18.92-.26,1.36-.09.57-.18,1.1-.26,1.67-.04.26-.18.53-.35.75-.04.18-.09.35-.13.57s-.13.48-.18.7c1.98-2.59,4.75-4.44,8.09-4.22,1.63.13,2.9.88,3.82,2.15.44.66,2.07,4.7,1.58,4.97,1.01-.4,2.59-.66,3.34.26.53,1.01-.22,2.02-1.23,2.37Z"/>
      <path class="cls-1" d="m294.01,49.1c-1.49,5.14-1.93,8.26-1.36,9.32.62,1.01,1.19,1.32,1.76.88,1.63-1.27,3.65-4.04,5.45-3.96.75.09,2.02.48,1.32,1.45-2.24,3.21-5.19,5.93-8.7,6.5-1.8.18-3.08-.35-3.82-1.58s-1.14-2.68-1.19-4.31c-.04-1.45.04-2.94.26-4.39-1.45,1.8-2.94,3.52-4.48,5.19-1.19,1.36-2.64,2.72-4.39,4-1.71,1.27-3.56,1.8-5.54,1.58-3.6-.7-2.46-6.72-1.93-9.27.97-4.26,2.86-8.04,5.71-11.38s6.15-6.06,9.89-8.22c1.36-.83,2.9-1.41,4.57-1.76,1.67-.4,3.25-.18,4.79.57.22.13.4.26.57.4,1.19-1.19,5.62-1.49,4.39.26-3.38,4.61-5.8,9.54-7.29,14.72Zm-7.69-.22c2.07-2.77,4.13-5.54,6.11-8.39-.57-.66-.31-1.32.57-1.8,1.19-.83-.4-2.33-1.19-2.59-1.23-.22-2.46.53-3.56,1.41-.18.13-.35.22-.48.35-2.46,1.71-4.61,3.69-6.5,5.98-3.69,4.53-5.23,9.54-5.36,15.29.31,1.45.7,1.14,1.45.26.13-.13.22-.22.35-.31,1.01-1.01,2.02-2.11,2.94-3.21,1.98-2.29,3.87-4.61,5.67-6.99Z"/>
      <path class="cls-1" d="m131.63,118.55c.26-.31.53-.66.75-.97.31-.48.62-.92.92-1.41.66-.92,1.23-1.89,1.8-2.9,1.19-2.11,2.24-4.31,3.16-6.55.88-2.29,1.58-4.61,2.15-6.99.04-.13.09-.31.13-.48.35-1.19.53-2.33-.53-2.99-1.19-.48-2.55.31-3.6,1.14-.13.09-.22.18-.31.22-3.3,2.33-6.33,5.23-9.01,8.66-2.68,3.38-5.05,6.86-7.12,10.33-4.53,7.16-8.31,15.21-9.71,23.6-.7,4.17-.7,8.83,1.41,12.57,1.45,2.2,3.52,3.16,6.28,2.9s5.89-1.76,9.36-4.48c3.47-2.77,6.86-6.15,10.11-10.24s5.19-6.24,5.76-6.55c.62-.31,1.23-.31,1.89,0,.66.26.83.79.53,1.63-4.26,5.76-8.88,11.03-13.75,15.82-4.35,4.09-9.36,7.08-15.38,7.6-12.88.79-12.44-15.38-10.02-23.86,3.3-10.94,9.05-21.18,16.3-30.01,3.52-4.35,7.38-8.57,12.26-11.34,3.16-1.76,10.2-3.56,10.77,1.89.18,2.29-.57,4.79-1.41,7.03l-.4,1.05c-.88,2.68-1.98,5.32-3.3,7.82-1.36,2.59-2.9,5.1-4.66,7.43-1.27,1.76-2.68,2.94-4.97,2.72-.88-.04-1.58-.57-1.63-1.45v-.26c.04-.7.48-1.23,1.32-1.58.26-.13.53-.22.79-.26l.09-.09Z"/>
      <path class="cls-1" d="m159.1,142.99c-2.64,3.38-5.8,6.2-9.45,8.39-1.27.75-2.77,1.32-4.57,1.71-1.76.35-3.21-.09-4.31-1.36-.83-1.32-1.14-2.94-.88-4.92.31-1.98.7-3.78,1.19-5.41.09-.31.18-.57.22-.79,1.27-4.79,3.3-9.23,6.02-13.36.66-.88,1.85-1.27,2.86-1.41.31-.09,2.46-.13,2.02.62-3.65,5.54-6.02,11.6-7.03,18.15,0,.13,0,.26-.04.4-.31,1.41-.35,2.77-.04,4.09.09.35.62,1.49.83,1.67.35.13,1.01-.35,1.58-.75.13-.09.22-.18.31-.22,2.59-1.85,4.83-4.04,6.81-6.55.79-1.01,5.49-1.63,4.48-.26Zm-9.05-23.95c-.22-1.19.04-2.33.79-3.34.75-1.05,1.67-1.8,2.68-2.24.31-.13.62-.26.97-.31.44-.35,1.36-.31,2.81.09,1.01.44,1.45,1.05,1.32,1.89-.22,1.58-.7,2.37-1.76,3.3-.92.92-2.02,1.58-3.25,1.98-1.41.4-3.03.18-3.56-1.36Z"/>
      <path class="cls-1" d="m188.01,108.89c-1.1.53-2.2.75-3.38.66-4.57-.4-9.14-.53-13.71-.44-1.19,3.38-2.33,6.77-3.43,10.15-2.24,6.46-3.96,13.1-5.19,19.82-.48,3.12-.79,6.24-.83,9.36v.22c-.09,1.23.04,2.46.4,3.65.62,1.71,1.36.57,1.98-.53.09-.13.18-.22.22-.35,1.1-1.98,6.2-1.71,4.7.66-1.45,2.59-3.56,4.97-6.72,5.19-2.77,0-4.61-1.71-5.27-4.31-.83-3.65-.35-7.73.22-11.43.04-.22.04-.4.09-.57.57-4,1.41-7.91,2.5-11.78,1.71-6.59,3.74-13.18,6.06-19.82-6.72.44-13.36,1.41-19.95,2.86-.53.18-1.93.44-1.93-.35.09-.62,1.93-1.05,2.72-1.23.04,0,.13,0,.18-.04,6.46-1.45,13.01-2.42,19.6-2.94,3.12-8.44,7.08-16.44,12.35-23.47,1.19-1.58,5.32-1.49,4.44,1.14-.48,1.45-1.23,2.77-2.24,3.91-.22.31-.53.53-.92.66-3.38,5.49-6.15,11.34-8.31,17.45,5.67-.22,11.38-.09,17.09.4,1.14.13-.35.92-.66,1.14Z"/>
      <path class="cls-1" d="m194.47,137.1c-1.49,5.14-1.93,8.26-1.36,9.32.62,1.01,1.19,1.32,1.76.88,1.63-1.27,3.65-4.04,5.45-3.96.75.09,2.02.48,1.32,1.45-2.24,3.21-5.19,5.93-8.7,6.5-1.8.18-3.08-.35-3.82-1.58s-1.14-2.68-1.19-4.31c-.04-1.45.04-2.94.26-4.39-1.45,1.8-2.94,3.52-4.48,5.19-1.19,1.36-2.64,2.72-4.39,4-1.71,1.27-3.56,1.8-5.54,1.58-3.6-.7-2.46-6.72-1.93-9.27.97-4.26,2.86-8.04,5.71-11.38s6.15-6.06,9.89-8.22c1.36-.83,2.9-1.41,4.57-1.76,1.67-.4,3.25-.18,4.79.57.22.13.4.26.57.4,1.19-1.19,5.62-1.49,4.39.26-3.38,4.61-5.8,9.54-7.29,14.72Zm-7.69-.22c2.07-2.77,4.13-5.54,6.11-8.39-.57-.66-.31-1.32.57-1.8,1.19-.83-.4-2.33-1.19-2.59-1.23-.22-2.46.53-3.56,1.41-.18.13-.35.22-.48.35-2.46,1.71-4.61,3.69-6.5,5.98-3.69,4.53-5.23,9.54-5.36,15.29.31,1.45.7,1.14,1.45.26.13-.13.22-.22.35-.31,1.01-1.01,2.02-2.11,2.94-3.21,1.98-2.29,3.87-4.61,5.67-6.99Z"/>
    </g>
  </g>
</svg>