<?xml version="1.0" encoding="UTF-8"?>
<svg id="Layer_2" data-name="Layer 2" xmlns="http://www.w3.org/2000/svg" viewBox="0 0 822.7 126.46">
  <defs>
    <style>
      .cls-1 {
        fill: #be6e53;
      }
    </style>
  </defs>
  <g id="Layer_1-2" data-name="Layer 1">
    <g>
      <path class="cls-1" d="m89.24,25.57c-3.87,10.85-7.17,21.9-10.03,33.13,3.62,0,7.17.06,10.73.19,1.52.06,2.48.7,1.97,2.16-.76,1.52-3.17,2.03-4.7,1.97-2.98-.06-5.97-.13-8.95-.13-1.46,5.97-2.73,12-3.81,18.03-1.84,9.39-3.17,18.92-4,28.5-.32,3.81-.06,8,2.03,11.24.89,1.33,2.09,2.22,3.68,2.67,1.21.25,1.46-.38,1.71-2.16.51-1.78,7.24-2.98,7.05-1.27-.95,5.65-9.52,7.3-14.22,6.28-7.74-1.78-7.74-10.85-7.11-17.2,1.59-15.55,4.19-30.91,7.93-46.08-8.82.19-17.58.76-26.28,1.84-.13.06-.25.06-.38.06s-.25,0-.32.06c-6.09,12.76-11.24,25.96-15.42,39.48-.7,1.71-7.24,2.67-7.05,1.21,4.25-13.65,9.46-26.85,15.55-39.74-4.44.63-8.89,1.4-13.33,2.35-5.08,1.02-10.16,2.22-14.73,4.57.32,0,.7-.06,1.02-.13,1.33-.19,3.05.13,3.11,1.65-.13,1.52-2.92,2.29-4,2.41-2.86.44-5.59.19-8.32-.63-1.33-.44-1.97-1.52-.7-2.6,5.4-3.87,11.43-6.6,18.09-8.19s13.33-2.79,20-3.55c.32-.06.63-.06.95-.13,2.22-4.44,4.51-8.82,6.92-13.14l.76-1.33c3.75-6.98,7.93-13.9,12.7-20.69,4.76-6.86,10.41-12.5,17.01-17.01,2.22-1.46,4.89-2.86,8-4.06,3.17-1.27,6.09-1.33,8.82-.25,1.33.76,1.97,1.78,1.78,2.98s-.57,2.41-1.14,3.68c-.19.32-.32.7-.44,1.02-1.71,4.25-3.3,8.51-4.89,12.82Zm-1.33-13.52c.63-1.65,1.65-4.38-1.08-4.51-1.46,0-3.17,1.21-4.51,2.22-.32.19-.57.38-.83.57-7.05,5.01-12.5,12.06-17.14,19.23-5.01,7.62-9.65,15.42-13.9,23.42-1.33,2.54-2.6,5.08-3.87,7.68,8.63-1.08,17.27-1.71,25.96-1.9.44-1.9.95-3.81,1.46-5.71,2.41-8.82,5.14-17.58,8.25-26.22,1.08-2.98,2.16-5.97,3.36-8.89.7-1.78,1.4-3.55,2.09-5.4.06-.19.13-.32.19-.51Z"/>
      <path class="cls-1" d="m119.2,74.89c-5.65,7.55-11.93,14.54-18.85,20.95-4.19,3.81-12.63,10.22-18.22,5.14-1.84-1.9-2.6-4.32-2.41-7.3s.63-5.84,1.33-8.44c.19-.83.32-1.52.51-2.22.19-1.21.44-2.35.76-3.55-1.33-.44-1.84-1.4-.63-2.41.51-.44,1.02-.83,1.46-1.27,1.33-5.27,2.98-10.54,4.89-15.68,2.67-7.17,5.84-14.16,9.46-20.88,2.03-3.68,4.19-7.3,6.47-10.79.32-.44.57-.83.83-1.27,1.46-2.54,3.24-4.7,5.46-6.54,4-2.86,11.55-3.17,11.17,3.36-.44,6.35-3.43,13.08-6.41,18.85-.19.32-.32.7-.51,1.02-6.03,12.31-14.22,22.98-24.5,31.99-.06.25-.06.51-.13.76l-.38,1.33c-.19.95-.44,1.9-.7,2.92-1.21,4.57-2.29,9.52-1.71,13.84.19,1.08.57,2.92,1.65,3.49,1.46.51,3.49-1.08,4.57-2.29.13-.06.19-.13.25-.19,2.16-1.97,4.25-3.94,6.28-6.03,4.63-4.63,8.89-9.58,12.82-14.85,1.46-1.78,8.44-2.35,6.54.06Zm-8.25-46.97c-6.73,10.22-12.19,21.07-16.31,32.56-.7,2.03-1.4,4.06-2.03,6.09,5.21-5.78,9.65-12.12,13.39-19.04,2.79-5.27,5.08-10.66,6.86-16.31.06-.25.19-.51.25-.76.38-1.14.7-2.29.95-3.49.06-.57.06-1.27-.06-1.97-.06-.44-.06-.89-.06-1.21-.19.19-.38.44-.57.63-.7.95-1.4,1.97-2.03,2.92l-.38.57Z"/>
      <path class="cls-1" d="m157.73,78.13c-3.36,1.84-6.67,3.87-9.84,6.09-4,8.38-10.03,15.04-17.96,20-1.14.76-5.14,1.9-5.78-.13-.44-2.86.38-5.52,2.41-7.87,2.09-2.35,4.32-4.44,6.67-6.22.57-.44,1.08-.89,1.59-1.33,2.22-1.84,4.44-3.55,6.73-5.21,2.79-6.16,4.44-13.52,2.98-19.87-.63-2.29-1.84-4-3.68-5.21s-3.87-1.4-6.22-.57c-3.49,1.59-6.16,5.01-8.12,8.25-2.73,4.38-4.63,9.01-5.78,13.96-.44,2.86-.89,5.78-1.27,8.7-.38,2.41-7.24,3.81-7.11.89.19-2.92.57-5.84,1.27-8.7,2.09-13.39,5.4-26.47,9.97-39.17s10.92-24.57,18.98-35.55c1.27-1.65,8.12-3.17,6.6.19-1.33,2.73-2.86,5.33-4.7,7.81-.25.32-.63.57-1.21.83-8.44,13.9-14.54,28.75-18.34,44.56,2.98-2.86,6.6-4.89,10.85-5.97,4.25-1.14,8.19-.51,11.87,1.9,3.05,2.48,4.57,5.84,4.63,9.97s-.51,8.19-1.78,12.12c.95-.57,1.84-1.08,2.79-1.65,1.27-.7,3.68-1.59,5.01-.63,1.08,1.02.7,2.03-.57,2.79Z"/>
      <path class="cls-1" d="m196.26,78.82c-10.54,9.46-18.47,15.17-23.74,17.2-5.14,2.03-9.97,2.29-15.74.7-2.6-.83-4.32-2.35-5.01-4.57s-.76-4.63-.19-7.17c1.27-5.21,4-10.03,8.25-14.47s8.63-8,13.27-10.66c4.25-2.54,8.89-3.87,13.9-2.6,5.33,1.46,2.6,7.17.25,10.16-3.36,3.87-7.24,6.54-11.74,7.87s-9.27,2.03-14.28,2.09c-.32.57-.63,1.21-.95,1.78-1.08,2.09-1.84,4.57-2.16,7.36-.32,2.73.63,4.89,2.79,6.47,1.78.95,3.81,1.02,6.03.25,2.29-.76,4.38-1.65,6.28-2.73.57-.32,1.02-.57,1.46-.76,7.62-4.7,12.63-7.93,14.98-9.78s4-2.73,4.82-2.73c.76,0,2.79.32,1.78,1.59Zm-27.55-10.47c-1.84,1.78-3.62,3.68-5.27,5.71,4.51,0,9.33-.76,11.93-2.09s4.13-3.11,6.16-5.9c2.09-2.79,2.41-5.21-.63-5.97-1.46-.38-3.3.32-5.46,2.03s-4,3.43-5.59,5.08l-1.14,1.14Z"/>
      <path class="cls-1" d="m226.6,73.68c-3.62,1.33-7.3,1.21-9.58-2.29-.44-.76-.76-1.65-.95-2.6-.25-1.21-.7-2.22-1.33-3.05-.95-.95-1.9-1.14-2.79-.44-.83.63-1.59,1.46-2.22,2.48-.13.19-.25.32-.38.51-5.21,6.98-9.33,15.93-12.31,26.85-.19.95-.44,1.84-.63,2.73-.25,1.08-.51,2.09-.7,3.11-.7,2.86-7.81,4-7.17.63.38-2.03.83-4.06,1.4-6.03,3.24-13.39,6.16-25.58,8.7-36.56.63-2.86,7.68-4,7.17-.63-.13.7-.25,1.33-.38,1.97-.13.83-.25,1.59-.38,2.41-.06.38-.25.76-.51,1.08-.06.25-.13.51-.19.83s-.19.7-.25,1.02c2.86-3.75,6.86-6.41,11.68-6.09,2.35.19,4.19,1.27,5.52,3.11.63.95,2.98,6.79,2.29,7.17,1.46-.57,3.75-.95,4.82.38.76,1.46-.32,2.92-1.78,3.43Z"/>
      <path class="cls-1" d="m275.42,37.18c-1.59.76-3.17,1.08-4.89.95-6.6-.57-13.2-.76-19.8-.63-1.71,4.89-3.36,9.78-4.95,14.66-3.24,9.33-5.71,18.92-7.49,28.63-.7,4.51-1.14,9.01-1.21,13.52v.32c-.13,1.78.06,3.55.57,5.27.89,2.48,1.97.83,2.86-.76.13-.19.25-.32.32-.51,1.59-2.86,8.95-2.48,6.79.95-2.09,3.75-5.14,7.17-9.71,7.49-4,0-6.67-2.48-7.62-6.22-1.21-5.27-.51-11.17.32-16.5.06-.32.06-.57.13-.83.83-5.78,2.03-11.43,3.62-17.01,2.48-9.52,5.4-19.04,8.76-28.63-9.71.63-19.3,2.03-28.82,4.13-.76.25-2.79.63-2.79-.51.13-.89,2.79-1.52,3.94-1.78.06,0,.19,0,.25-.06,9.33-2.09,18.79-3.49,28.31-4.25,4.51-12.19,10.22-23.74,17.84-33.9,1.71-2.29,7.68-2.16,6.41,1.65-.7,2.09-1.78,4-3.24,5.65-.32.44-.76.76-1.33.95-4.89,7.93-8.89,16.38-12,25.2,8.19-.32,16.44-.13,24.69.57,1.65.19-.51,1.33-.95,1.65Z"/>
      <path class="cls-1" d="m293.95,73.05c-1.84,2.03-4.63,3.11-8.25,3.24-.57.06-1.46.06-2.6.06-.7,3.75-2.03,7.43-3.87,11.04-1.84,3.55-3.68,6.47-5.46,8.76-3.24,4.32-7.3,8.06-12.82,8.82-5.14.51-8.63-2.48-8.89-7.62-.19-5.14,1.02-10.03,3.55-14.6s5.84-8.44,9.84-11.62c-1.46-2.22-1.14-4.51,1.08-6.86,3.55-3.11,8.82-3.62,12.63-.76,2.54,2.16,3.94,4.82,4.13,8,2.6.57,4.63.7,5.97.44,1.33-.32,2.41-.7,3.24-1.27s1.52-.63,2.09-.13c.51.51.57,1.21-.63,2.48Zm-18.09,2.73c-2.22-.32-4.32-.83-6.28-1.59-5.9,5.14-9.33,11.62-10.28,19.49-.25,1.78-.44,4.76,1.08,6.09,1.08.7,2.16.57,3.24-.32s1.97-1.84,2.67-2.79c.13-.13.25-.25.38-.44,3.3-4.06,5.84-8.57,7.62-13.58.83-2.09,1.33-4.38,1.59-6.86Zm-3.55-6.98v.06h.06c.63.19,1.08.51,1.33.95.51.19,1.02.32,1.59.38-.19-.57-.51-1.14-.83-1.65-.25-.57-1.46-2.09-2.16-2.09-1.08.25-.63,1.59,0,2.35Z"/>
      <path class="cls-1" d="m368.42,71.8c-1.61,1.94-3.35,3.76-5.2,5.43-1.84,1.74-3.76,3.45-5.7,5.13-.23.2-.44.4-.67.6.6,1.17,1.27,2.35,1.98,3.45,1.07,1.74,2.25,3.42,3.49,5,.77-.8,1.41-1.54,1.91-2.25.54-.7.74-1.17.57-1.37-1.27-1.27,2.25-2.75,3.45-1.64.64.77.67,1.61.1,2.58-.57.94-1.17,1.74-1.88,2.45-.17.2-.3.37-.44.5-.6.7-1.21,1.37-1.84,2.05,1.51,1.91,3.35,3.76,5.87,3.89.91.03,1.41.67,1.14,1.51-.4.91-1.61,1.14-2.45,1.11-2.82-.1-5.23-1.68-7.28-3.86l-1.21,1.11c-4.22,3.65-8.92,6.57-14.12,8.72-2.85,1.14-8.78,2.15-8.68-2.65.17-2.38.97-4.69,2.41-6.87,1.44-2.21,2.98-4.16,4.56-5.87,2.55-2.78,5.26-5.4,8.11-7.88-1.44-3.05-2.31-6.24-2.55-9.59-.13-3.12.47-6.07,1.81-8.82,1.34-2.78,3.25-4.96,5.73-6.57,2.51-1.61,5.43-2.25,8.75-1.88,5.06.77,7.01,4.36,5.67,9.15-.77,2.41-1.94,4.59-3.55,6.57Zm-14.52,13.78c-.94.84-1.84,1.68-2.75,2.55-2.01,1.84-3.96,3.92-5.83,6.24s-3.15,4.79-3.86,7.48c-.27,1.37-.1,2.18.47,2.45s1.34.23,2.25-.07c.94-.34,1.78-.7,2.51-1.07.03-.03.07-.03.1-.03,2.38-1.14,4.66-2.48,6.84-3.99,2.11-1.51,4.12-3.15,5.97-4.93-.94-1.27-1.81-2.48-2.58-3.65-.13-.2-.27-.4-.4-.57-.97-1.41-1.88-2.88-2.72-4.39Zm3.32-6.71c3.62-3.08,7.28-6.44,9.66-10.5.67-1.07,1.17-2.28,1.54-3.62s.37-2.62-.07-3.86c-.64-1.27-1.68-2.01-3.12-2.18s-2.78-.03-3.99.4c-2.51.97-4.36,2.58-5.6,4.9-1.21,2.28-1.84,4.69-1.88,7.28,0,3.12.6,6.14,1.84,8.99l.17-.17c.1-.07.17-.13.27-.23.37-.34.77-.67,1.17-1.01Z"/>
      <path class="cls-1" d="m483.05,25.57c-3.87,10.85-7.17,21.9-10.03,33.13,3.62,0,7.17.06,10.73.19,1.52.06,2.48.7,1.97,2.16-.76,1.52-3.17,2.03-4.7,1.97-2.98-.06-5.97-.13-8.95-.13-1.46,5.97-2.73,12-3.81,18.03-1.84,9.39-3.17,18.92-4,28.5-.32,3.81-.06,8,2.03,11.24.89,1.33,2.09,2.22,3.68,2.67,1.21.25,1.46-.38,1.71-2.16.51-1.78,7.24-2.98,7.05-1.27-.95,5.65-9.52,7.3-14.22,6.28-7.74-1.78-7.74-10.85-7.11-17.2,1.59-15.55,4.19-30.91,7.93-46.08-8.82.19-17.58.76-26.28,1.84-.13.06-.25.06-.38.06s-.25,0-.32.06c-6.09,12.76-11.24,25.96-15.42,39.48-.7,1.71-7.24,2.67-7.05,1.21,4.25-13.65,9.46-26.85,15.55-39.74-4.44.63-8.89,1.4-13.33,2.35-5.08,1.02-10.16,2.22-14.73,4.57.32,0,.7-.06,1.02-.13,1.33-.19,3.05.13,3.11,1.65-.13,1.52-2.92,2.29-4,2.41-2.86.44-5.59.19-8.32-.63-1.33-.44-1.97-1.52-.7-2.6,5.4-3.87,11.43-6.6,18.09-8.19s13.33-2.79,19.99-3.55c.32-.06.63-.06.95-.13,2.22-4.44,4.51-8.82,6.92-13.14l.76-1.33c3.75-6.98,7.93-13.9,12.7-20.69,4.76-6.86,10.41-12.5,17.01-17.01,2.22-1.46,4.89-2.86,8-4.06,3.17-1.27,6.09-1.33,8.82-.25,1.33.76,1.97,1.78,1.78,2.98s-.57,2.41-1.14,3.68c-.19.32-.32.7-.44,1.02-1.71,4.25-3.3,8.51-4.89,12.82Zm-1.33-13.52c.63-1.65,1.65-4.38-1.08-4.51-1.46,0-3.17,1.21-4.51,2.22-.32.19-.57.38-.83.57-7.05,5.01-12.5,12.06-17.14,19.23-5.01,7.62-9.65,15.42-13.9,23.42-1.33,2.54-2.6,5.08-3.87,7.68,8.63-1.08,17.27-1.71,25.96-1.9.44-1.9.95-3.81,1.46-5.71,2.41-8.82,5.14-17.58,8.25-26.22,1.08-2.98,2.16-5.97,3.36-8.89.7-1.78,1.4-3.55,2.09-5.4.06-.19.13-.32.19-.51Z"/>
      <path class="cls-1" d="m503.42,98.76c-.89-3.49-.95-7.62-.13-12.25-11.87,13.33-18.54,19.8-19.93,19.36-4-1.02-6.22-2.79-6.6-5.33-.32-2.6-.19-5.27.38-8.12.63-2.86,1.27-5.14,1.9-6.86,3.05-8.12,6.92-15.81,11.62-23.11,1.27-1.97,8.32-2.67,6.6.13-3.62,5.78-6.79,11.74-9.52,17.96-1.33,2.86-2.41,5.97-3.3,9.39-.83,3.36-.89,6.67-.19,9.78l22.47-26.34c1.02-1.52,7.68-2.73,6.86-.38-.38.83-.95,2.54-1.78,5.01-.76,2.48-1.4,5.08-1.9,7.93s-.7,5.9-.63,9.14c.13,3.24,1.21,4.63,3.24,4.19,1.02-.19,2.54-1.27,4.51-3.36,2.03-2.09,4.76-5.71,8.25-10.79,1.27-1.33,2.03-1.14,2.22.57s-1.02,4.44-3.75,8.25-5.01,6.41-6.92,7.87c-1.84,1.4-4,2.03-6.41,1.97-3.75.19-6.03-1.52-6.98-5.01Z"/>
      <path class="cls-1" d="m555.28,77.93c-2.16,7.43-2.79,11.93-1.97,13.46.89,1.46,1.71,1.9,2.54,1.27,2.35-1.84,5.27-5.84,7.87-5.71,1.08.13,2.92.7,1.9,2.09-3.24,4.63-7.49,8.57-12.57,9.39-2.6.25-4.44-.51-5.52-2.29s-1.65-3.87-1.71-6.22c-.06-2.09.06-4.25.38-6.35-2.09,2.6-4.25,5.08-6.47,7.49-1.71,1.97-3.81,3.94-6.35,5.78-2.48,1.84-5.14,2.6-8,2.29-5.21-1.02-3.55-9.71-2.79-13.39,1.4-6.16,4.13-11.62,8.25-16.44s8.89-8.76,14.28-11.87c1.97-1.21,4.19-2.03,6.6-2.54,2.41-.57,4.7-.25,6.92.83.32.19.57.38.83.57,1.71-1.71,8.12-2.16,6.35.38-4.89,6.67-8.38,13.77-10.54,21.26Zm-11.11-.32c2.98-4,5.97-8,8.82-12.12-.83-.95-.44-1.9.83-2.6,1.71-1.21-.57-3.36-1.71-3.75-1.78-.32-3.55.76-5.14,2.03-.25.19-.51.32-.7.51-3.55,2.48-6.67,5.33-9.39,8.63-5.33,6.54-7.55,13.77-7.74,22.09.44,2.09,1.02,1.65,2.09.38.19-.19.32-.32.51-.44,1.46-1.46,2.92-3.05,4.25-4.63,2.86-3.3,5.59-6.67,8.19-10.09Z"/>
      <path class="cls-1" d="m660.08,119.19c-5.21,4.25-11.11,5.84-17.77,4.76-7.3-1.33-13.2-5.9-18.34-10.98-5.9-5.65-11.36-11.81-16.25-18.47-2.35-3.17-4.51-6.47-6.6-9.84-.89,2.79-1.78,5.59-2.73,8.38-2.73,8.57-5.52,17.08-8.25,25.64-.95,2.29-7.81,3.3-7.11.95l8.57-26.47c1.46-4.38,2.86-8.82,4.32-13.2-.44-.19-.76-.44-.89-.89-.38-1.46-.76-2.98-1.21-4.51-.25-1.84,2.41-2.79,4.76-2.86,3.49-10.66,6.92-21.33,10.35-32.06,2.16-6.16,3.75-12.44,4.7-18.92.19-1.33.19-2.67.13-4v-.19c.06-2.09-.13-2.16-1.46-.95-.19.13-.38.25-.57.44-2.22,1.71-4.32,3.55-6.28,5.52-4.13,4.13-7.74,8.63-10.85,13.65-.13.13-.25.32-.38.57-1.97,3.05-7.93,12.38-5.27,14.16,2.79,1.9-3.75,4.51-5.65,3.36-1.78-1.33-2.41-2.98-1.84-5.01s1.33-3.94,2.41-5.71c.19-.44.44-.83.63-1.27,2.86-5.59,6.28-10.79,10.41-15.55,3.36-4,7.05-7.55,11.17-10.79,1.59-1.33,3.49-2.54,5.59-3.49,2.16-1.02,4.32-1.14,6.41-.32,1.9.95,2.86,2.54,2.92,4.76s-.13,4.25-.57,6.16c-.06.25-.06.51-.13.7-1.27,6.16-2.92,12.19-4.95,18.09-3.24,9.9-6.41,19.8-9.65,29.71-.13.38-.25.76-.38,1.21,6.41-6.03,12.7-12.06,18.98-18.09,1.65-1.59,3.36-3.17,5.08-4.76,5.78-5.27,11.55-10.79,15.93-17.14-1.84-.51-2.6-1.9-.57-3.62,2.03-1.52,4.32-2.41,6.79-2.67,1.52-.25,4,.76,2.98,2.79-4.51,8.38-11.49,15.36-18.66,21.9-1.52,1.46-3.05,2.86-4.51,4.25-8.44,8.19-16.95,16.25-25.52,24.25,1.46,2.48,2.92,4.89,4.51,7.24,3.49,5.33,7.36,10.35,11.49,15.11.32.32.57.7.89,1.02,6.6,7.62,21.65,24.88,31.67,16,1.27-1.08,3.43-1.78,5.01-1.33,1.33.44,1.78,1.4.7,2.48Z"/>
      <path class="cls-1" d="m669.35,77.93c-2.16,7.43-2.79,11.93-1.97,13.46.89,1.46,1.71,1.9,2.54,1.27,2.35-1.84,5.27-5.84,7.87-5.71,1.08.13,2.92.7,1.9,2.09-3.24,4.63-7.49,8.57-12.57,9.39-2.6.25-4.44-.51-5.52-2.29s-1.65-3.87-1.71-6.22c-.06-2.09.06-4.25.38-6.35-2.09,2.6-4.25,5.08-6.47,7.49-1.71,1.97-3.81,3.94-6.35,5.78-2.48,1.84-5.14,2.6-8,2.29-5.21-1.02-3.55-9.71-2.79-13.39,1.4-6.16,4.13-11.62,8.25-16.44s8.89-8.76,14.28-11.87c1.97-1.21,4.19-2.03,6.6-2.54,2.41-.57,4.7-.25,6.92.83.32.19.57.38.83.57,1.71-1.71,8.12-2.16,6.35.38-4.89,6.67-8.38,13.77-10.54,21.26Zm-11.11-.32c2.98-4,5.97-8,8.82-12.12-.83-.95-.44-1.9.83-2.6,1.71-1.21-.57-3.36-1.71-3.75-1.78-.32-3.55.76-5.14,2.03-.25.19-.51.32-.7.51-3.55,2.48-6.67,5.33-9.39,8.63-5.33,6.54-7.55,13.77-7.74,22.09.44,2.09,1.02,1.65,2.09.38.19-.19.32-.32.51-.44,1.46-1.46,2.92-3.05,4.25-4.63,2.86-3.3,5.59-6.67,8.19-10.09Z"/>
      <path class="cls-1" d="m711.69,73.68c-3.62,1.33-7.3,1.21-9.58-2.29-.44-.76-.76-1.65-.95-2.6-.25-1.21-.7-2.22-1.33-3.05-.95-.95-1.9-1.14-2.79-.44-.83.63-1.59,1.46-2.22,2.48-.13.19-.25.32-.38.51-5.21,6.98-9.33,15.93-12.31,26.85-.19.95-.44,1.84-.63,2.73-.25,1.08-.51,2.09-.7,3.11-.7,2.86-7.81,4-7.17.63.38-2.03.83-4.06,1.4-6.03,3.24-13.39,6.16-25.58,8.7-36.56.63-2.86,7.68-4,7.17-.63-.13.7-.25,1.33-.38,1.97-.13.83-.25,1.59-.38,2.41-.06.38-.25.76-.51,1.08-.06.25-.13.51-.19.83s-.19.7-.25,1.02c2.86-3.75,6.86-6.41,11.68-6.09,2.35.19,4.19,1.27,5.52,3.11.63.95,2.98,6.79,2.29,7.17,1.46-.57,3.75-.95,4.82.38.76,1.46-.32,2.92-1.78,3.43Z"/>
      <path class="cls-1" d="m738.86,86.44c-3.81,4.89-8.38,8.95-13.65,12.12-1.84,1.08-4,1.9-6.6,2.48-2.54.51-4.63-.13-6.22-1.97-1.21-1.9-1.65-4.25-1.27-7.11.44-2.86,1.02-5.46,1.71-7.81.13-.44.25-.83.32-1.14,1.84-6.92,4.76-13.33,8.7-19.3.95-1.27,2.67-1.84,4.13-2.03.44-.13,3.55-.19,2.92.89-5.27,8-8.7,16.76-10.16,26.22,0,.19,0,.38-.06.57-.44,2.03-.51,4-.06,5.9.13.51.89,2.16,1.21,2.41.51.19,1.46-.51,2.29-1.08.19-.13.32-.25.44-.32,3.75-2.67,6.98-5.84,9.84-9.46,1.14-1.46,7.93-2.35,6.47-.38Zm-13.08-34.59c-.32-1.71.06-3.36,1.14-4.82,1.08-1.52,2.41-2.6,3.87-3.24.44-.19.89-.38,1.4-.44.63-.51,1.97-.44,4.06.13,1.46.63,2.09,1.52,1.9,2.73-.32,2.29-1.02,3.43-2.54,4.76-1.33,1.33-2.92,2.29-4.7,2.86-2.03.57-4.38.25-5.14-1.97Z"/>
      <path class="cls-1" d="m759.99,98.76c-.89-3.49-.95-7.62-.13-12.25-11.87,13.33-18.54,19.8-19.93,19.36-4-1.02-6.22-2.79-6.6-5.33-.32-2.6-.19-5.27.38-8.12.63-2.86,1.27-5.14,1.9-6.86,3.05-8.12,6.92-15.81,11.62-23.11,1.27-1.97,8.32-2.67,6.6.13-3.62,5.78-6.79,11.74-9.52,17.96-1.33,2.86-2.41,5.97-3.3,9.39-.83,3.36-.89,6.67-.19,9.78l22.47-26.34c1.02-1.52,7.68-2.73,6.86-.38-.38.83-.95,2.54-1.78,5.01-.76,2.48-1.4,5.08-1.9,7.93s-.7,5.9-.63,9.14c.13,3.24,1.21,4.63,3.24,4.19,1.02-.19,2.54-1.27,4.51-3.36,2.03-2.09,4.76-5.71,8.25-10.79,1.27-1.33,2.03-1.14,2.22.57s-1.02,4.44-3.75,8.25-5.01,6.41-6.92,7.87c-1.84,1.4-4,2.03-6.41,1.97-3.75.19-6.03-1.52-6.98-5.01Z"/>
      <path class="cls-1" d="m811.86,77.93c-2.16,7.43-2.79,11.93-1.97,13.46.89,1.46,1.71,1.9,2.54,1.27,2.35-1.84,5.27-5.84,7.87-5.71,1.08.13,2.92.7,1.9,2.09-3.24,4.63-7.49,8.57-12.57,9.39-2.6.25-4.44-.51-5.52-2.29s-1.65-3.87-1.71-6.22c-.06-2.09.06-4.25.38-6.35-2.09,2.6-4.25,5.08-6.47,7.49-1.71,1.97-3.81,3.94-6.35,5.78-2.48,1.84-5.14,2.6-8,2.29-5.21-1.02-3.55-9.71-2.79-13.39,1.4-6.16,4.13-11.62,8.25-16.44s8.89-8.76,14.28-11.87c1.97-1.21,4.19-2.03,6.6-2.54,2.41-.57,4.7-.25,6.92.83.32.19.57.38.83.57,1.71-1.71,8.12-2.16,6.35.38-4.89,6.67-8.38,13.77-10.54,21.26Zm-11.11-.32c2.98-4,5.97-8,8.82-12.12-.83-.95-.44-1.9.83-2.6,1.71-1.21-.57-3.36-1.71-3.75-1.78-.32-3.55.76-5.14,2.03-.25.19-.51.32-.7.51-3.55,2.48-6.67,5.33-9.39,8.63-5.33,6.54-7.55,13.77-7.74,22.09.44,2.09,1.02,1.65,2.09.38.19-.19.32-.32.51-.44,1.46-1.46,2.92-3.05,4.25-4.63,2.86-3.3,5.59-6.67,8.19-10.09Z"/>
    </g>
  </g>
</svg>