<?xml version="1.0" encoding="UTF-8"?>
<svg id="Capa_2" data-name="Capa 2" xmlns="http://www.w3.org/2000/svg" xmlns:xlink="http://www.w3.org/1999/xlink" viewBox="0 0 548.47 621.6">
  <defs>
    <style>
      .cls-1 {
        fill: url(#Latón_pulido);
      }
    </style>
    <linearGradient id="Latón_pulido" data-name="Latón pulido" x1="0" y1="310.8" x2="548.47" y2="310.8" gradientUnits="userSpaceOnUse">
      <stop offset="0" stop-color="#efc981"/>
      <stop offset=".19" stop-color="#f2d78f"/>
      <stop offset=".41" stop-color="#f8f0e4"/>
      <stop offset=".73" stop-color="#c58511"/>
      <stop offset=".9" stop-color="#e4b76c"/>
      <stop offset=".95" stop-color="#eec687"/>
    </linearGradient>
  </defs>
  <g id="Capa_1-2" data-name="Capa 1">
    <path class="cls-1" d="m274.24,15c2.57,4.14,5.97,9.04,10.35,14.26,10.99,13.1,30.61,30.97,61.63,41.73,21.25,7.36,36.55,18.31,44.26,31.66,5.49,9.5,5.34,17.18,5.32,17.79l-.75,7.51h38.96c16.41,0,29.75,13.35,29.75,29.75v23h47.94c16.41,0,29.76,13.35,29.76,29.76v136.93c0,36.08-7.06,71.08-21,104.02-13.46,31.82-32.73,60.4-57.27,84.95-24.54,24.54-53.12,43.81-84.95,57.27-32.94,13.93-67.94,21-104.02,21s-71.08-7.06-104.02-21c-31.82-13.46-60.4-32.73-84.95-57.27-24.54-24.54-43.81-53.12-57.27-84.95-13.93-32.94-21-67.94-21-104.02v-136.93c0-16.41,13.35-29.76,29.76-29.76h47.94v-23c0-16.41,13.35-29.75,29.76-29.75h31.23l7.74.15-.76-7.66c-.02-.61-.17-8.28,5.32-17.79,7.71-13.34,23.02-24.29,44.26-31.66,31.02-10.75,50.64-28.63,61.63-41.73,4.38-5.22,7.78-10.12,10.35-14.26m0-15s-17.14,44.56-74.27,64.37-54.28,56.56-54.28,56.56h-31.23c-20.3,0-36.76,16.46-36.76,36.75v16h-40.94c-20.3,0-36.76,16.46-36.76,36.76v136.93c0,151.46,122.78,274.23,274.23,274.23h0c151.46,0,274.23-122.78,274.23-274.23v-136.93c0-20.3-16.46-36.76-36.76-36.76h-40.94v-16c0-20.3-16.46-36.75-36.75-36.75h-31.23s2.86-36.76-54.28-56.56S274.24,0,274.24,0h0Z"/>
  </g>
</svg>