<?xml version="1.0" encoding="UTF-8"?>
<svg id="Layer_2" data-name="Layer 2" xmlns="http://www.w3.org/2000/svg" viewBox="0 0 461.12 93.6">
  <defs>
    <style>
      .cls-1 {
        fill: #69725d;
      }
    </style>
  </defs>
  <g id="Layer_1-2" data-name="Layer 1">
    <g>
      <path class="cls-1" d="m62.69,24.53c-3.12,4.7-7.03,8.75-11.82,12.08-4.79,3.3-9.8,5.89-15.12,7.69-3.12,1.1-6.33,1.89-9.62,2.42-.57.13-1.19.22-1.8.35-.31.04-.57.13-.83.18-.53,1.41-1.01,2.81-1.49,4.26-1.76,5.27-3.25,10.59-4.48,16-.66,2.77-1.19,5.58-1.67,8.39-.4,2.11-.48,4.31,1.23,5.76,1.23,1.1-3.21,2.81-4.57,1.89-1.45-1.36-2.07-3.12-1.89-5.27.13-2.15.53-4.22,1.1-6.2.18-.7.35-1.36.48-1.93,1.23-5.76,2.77-11.43,4.57-17.01.62-1.89,1.27-3.74,1.93-5.54-1.63-.22-3.08-1.23-2.33-2.99.75-1.54,2.64-2.07,4.26-2.02,3.08-7.56,6.68-14.85,10.77-21.93.83-1.27,5.62-1.89,4.53.04-4.35,7.51-8.13,15.34-11.25,23.47.35-.04.7-.13,1.1-.18.79-.13,1.58-.26,2.33-.4,2.77-.57,5.49-1.36,8.13-2.37,4.61-1.8,8.83-4.22,12.74-7.29,6.24-4.88,13.54-12.52,11.95-21.18-.66-3.12-2.11-5.41-4.44-6.86s-4.97-2.33-7.95-2.64c-2.94-.31-5.76-.31-8.44,0-8.92,1.1-16.48,4.61-22.76,10.55-6.24,5.93-10.37,13.18-12.39,21.84-.44,1.8-5.36,2.5-4.92.57,1.45-6.24,4.04-11.91,7.78-17.05s8.35-9.36,13.89-12.57c4.83-2.77,10.06-4.7,15.69-5.8s11.16-1.05,16.66.04c4.97,1.05,9.4,3.69,11.29,8.57,1.76,5.23.35,10.59-2.64,15.12Z"/>
      <path class="cls-1" d="m81.94,46.99c-3.91,5.23-8.26,10.06-13.05,14.5-2.9,2.64-8.75,7.08-12.61,3.56-1.27-1.32-1.8-2.99-1.67-5.05s.44-4.04.92-5.84c.13-.57.22-1.05.35-1.54.13-.83.31-1.63.53-2.46-.92-.31-1.27-.97-.44-1.67.35-.31.7-.57,1.01-.88.92-3.65,2.07-7.29,3.38-10.85,1.85-4.97,4.04-9.8,6.55-14.46,1.41-2.55,2.9-5.05,4.48-7.47.22-.31.4-.57.57-.88,1.01-1.76,2.24-3.25,3.78-4.53,2.77-1.98,8-2.2,7.73,2.33-.31,4.39-2.37,9.05-4.44,13.05-.13.22-.22.48-.35.7-4.17,8.53-9.84,15.91-16.96,22.15-.04.18-.04.35-.09.53l-.26.92c-.13.66-.31,1.32-.48,2.02-.83,3.16-1.58,6.59-1.19,9.58.13.75.4,2.02,1.14,2.42,1.01.35,2.42-.75,3.16-1.58.09-.04.13-.09.18-.13,1.49-1.36,2.94-2.72,4.35-4.17,3.21-3.21,6.15-6.64,8.88-10.28,1.01-1.23,5.84-1.63,4.53.04Zm-5.71-32.52c-4.66,7.08-8.44,14.59-11.29,22.54-.48,1.41-.97,2.81-1.41,4.22,3.6-4,6.68-8.39,9.27-13.18,1.93-3.65,3.52-7.38,4.75-11.29.04-.18.13-.35.18-.53.26-.79.48-1.58.66-2.42.04-.4.04-.88-.04-1.36-.04-.31-.04-.62-.04-.83-.13.13-.26.31-.4.44-.48.66-.97,1.36-1.41,2.02l-.26.4Z"/>
      <path class="cls-1" d="m97.94,49.1c-1.49,5.14-1.93,8.26-1.36,9.32.62,1.01,1.19,1.32,1.76.88,1.63-1.27,3.65-4.04,5.45-3.96.75.09,2.02.48,1.32,1.45-2.24,3.21-5.19,5.93-8.7,6.5-1.8.18-3.08-.35-3.82-1.58s-1.14-2.68-1.19-4.31c-.04-1.45.04-2.94.26-4.39-1.45,1.8-2.94,3.52-4.48,5.19-1.19,1.36-2.64,2.72-4.39,4-1.71,1.27-3.56,1.8-5.54,1.58-3.6-.7-2.46-6.72-1.93-9.27.97-4.26,2.86-8.04,5.71-11.38s6.15-6.06,9.89-8.22c1.36-.83,2.9-1.41,4.57-1.76,1.67-.4,3.25-.18,4.79.57.22.13.4.26.57.4,1.19-1.19,5.62-1.49,4.39.26-3.38,4.61-5.8,9.54-7.29,14.72Zm-7.69-.22c2.07-2.77,4.13-5.54,6.11-8.39-.57-.66-.31-1.32.57-1.8,1.19-.83-.4-2.33-1.19-2.59-1.23-.22-2.46.53-3.56,1.41-.18.13-.35.22-.48.35-2.46,1.71-4.61,3.69-6.5,5.98-3.69,4.53-5.23,9.54-5.36,15.29.31,1.45.7,1.14,1.45.26.13-.13.22-.22.35-.31,1.01-1.01,2.02-2.11,2.94-3.21,1.98-2.29,3.87-4.61,5.67-6.99Z"/>
      <path class="cls-1" d="m127.64,37.23c-.97,6.24-2.29,12.39-3.91,18.46-.4,1.54-.75,3.12-1.14,4.7-1.71,6.77-4.13,13.27-7.34,19.47l-.53,1.05c-1.71,3.65-3.78,7.43-6.9,9.89-2.02,1.54-4.31,2.42-6.86,2.72s-4.88-.31-6.99-1.8c-.83-.83,3.34-2.59,4.61-1.76,2.02,1.41,3.74,1.54,5.19.44s2.68-2.55,3.69-4.39c2.42-4.13,4.53-8.44,6.33-12.92,2.07-5.32,3.69-10.72,4.97-16.3.04-.09.04-.18.09-.31.48-1.76.92-3.52,1.32-5.27-.04.09-.13.18-.22.26-.13.22-.31.4-.44.57-1.49,1.8-3.34,3.47-5.54,5.1s-4.48,2.5-6.9,2.64c-1.8-.09-2.94-.88-3.43-2.37-.44-1.54-.53-3.25-.26-5.14s.57-3.47.88-4.66c.57-2.46,1.27-4.88,2.11-7.25.04-.22.13-.48.22-.79.18-.83.44-1.76.97-2.29.75-.75,2.15-1.23,3.25-1.23.57,0,1.93.22,1.23,1.01.26-.26.13.09-.04.35-.04.09-.09.18-.09.22-.22.57-.4,1.1-.57,1.63-.57,1.63-1.05,3.21-1.54,4.83-.04.31-.13.62-.26.92-.57,1.76-1.01,3.74-1.41,5.98-.35,2.2-.13,4.04.66,5.49.09.26.18.53.31.79.57-.31,1.14-.66,1.67-1.05,1.01-.75,1.93-1.54,2.81-2.42,1.49-1.54,2.81-3.16,4-4.97,2.11-3.43,3.82-7.03,5.19-10.81.48-1.14,5.01-2.24,4.88-.79Z"/>
      <path class="cls-1" d="m149.18,49.1c-1.49,5.14-1.93,8.26-1.36,9.32.62,1.01,1.19,1.32,1.76.88,1.63-1.27,3.65-4.04,5.45-3.96.75.09,2.02.48,1.32,1.45-2.24,3.21-5.19,5.93-8.7,6.5-1.8.18-3.08-.35-3.82-1.58s-1.14-2.68-1.19-4.31c-.04-1.45.04-2.94.26-4.39-1.45,1.8-2.94,3.52-4.48,5.19-1.19,1.36-2.64,2.72-4.39,4-1.71,1.27-3.56,1.8-5.54,1.58-3.6-.7-2.46-6.72-1.93-9.27.97-4.26,2.86-8.04,5.71-11.38s6.15-6.06,9.89-8.22c1.36-.83,2.9-1.41,4.57-1.76,1.67-.4,3.25-.18,4.79.57.22.13.4.26.57.4,1.19-1.19,5.62-1.49,4.39.26-3.38,4.61-5.8,9.54-7.29,14.72Zm-7.69-.22c2.07-2.77,4.13-5.54,6.11-8.39-.57-.66-.31-1.32.57-1.8,1.19-.83-.4-2.33-1.19-2.59-1.23-.22-2.46.53-3.56,1.41-.18.13-.35.22-.48.35-2.46,1.71-4.61,3.69-6.5,5.98-3.69,4.53-5.23,9.54-5.36,15.29.31,1.45.7,1.14,1.45.26.13-.13.22-.22.35-.31,1.01-1.01,2.02-2.11,2.94-3.21,1.98-2.29,3.87-4.61,5.67-6.99Z"/>
      <path class="cls-1" d="m215.84,7.48c-2.68,6.9-5.98,13.54-9.89,19.82-1.32,3.56-2.59,7.12-3.87,10.68-1.98,5.76-3.6,10.99-4.83,15.69-1.19,4.7-1.89,7.73-2.02,9.18-.31,2.81.13,4.26.79,5.14.31-.04.57-.09.83-.09.31,0,2.07,0,1.14.7-1.54,1.1-3.87,2.02-5.76,1.36-1.05-.53-1.71-1.32-1.93-2.37s-.22-2.94.09-5.71.79-5.05,1.45-6.9c.7-1.89,1.58-4.39,2.59-7.51.13-.48.31-.92.44-1.41.44-1.36.88-2.77,1.36-4.13-.31.09-.66.18-1.05.22-2.94,4.22-6.11,7.91-9.49,11.12-2.81,2.68-6.06,5.14-9.54,5.49s-5.27-.18-4.7-3.69c1.67-7.47,5.76-13.23,12.3-17.27,2.86-1.76,6.37-2.99,9.71-2.5.88.13,1.67.4,2.33.88,1.89-2.59,3.65-5.27,5.36-8.04.48-1.32,1.01-2.64,1.49-4,.4-1.01.75-2.02,1.14-3.12.79-2.42,1.71-4.79,2.81-7.08,1.1-2.33,2.64-4.22,4.61-5.76.44-.35,5.01-1.89,4.61-.7Zm-22.98,32.52c-.4-1.27-1.19-2.15-2.46-2.64-1.05-.26-2.11-.09-3.16.57-1.01.66-1.93,1.32-2.72,2.07l-.13.13c-2.64,2.33-4.7,5.05-6.15,8.26-.75,1.54-1.32,3.16-1.71,4.83,0,.04,0,.13-.04.22-.13.4-.35,1.19-.4,1.89,0,.31.22.53.7.62.48.04,1.63-.48,3.38-1.63,1.8-1.19,3.91-3.16,6.42-6.02,2.2-2.37,4.31-5.14,6.28-8.31Z"/>
      <path class="cls-1" d="m230.3,49.71c-7.29,6.55-12.79,10.5-16.44,11.91-3.56,1.41-6.9,1.58-10.9.48-1.8-.57-2.99-1.63-3.47-3.16s-.53-3.21-.13-4.97c.88-3.6,2.77-6.94,5.71-10.02s5.98-5.54,9.18-7.38c2.94-1.76,6.15-2.68,9.62-1.8,3.69,1.01,1.8,4.97.18,7.03-2.33,2.68-5.01,4.53-8.13,5.45s-6.42,1.41-9.89,1.45c-.22.4-.44.83-.66,1.23-.75,1.45-1.27,3.16-1.49,5.1-.22,1.89.44,3.38,1.93,4.48,1.23.66,2.64.7,4.17.18,1.58-.53,3.03-1.14,4.35-1.89.4-.22.7-.4,1.01-.53,5.27-3.25,8.75-5.49,10.37-6.77s2.77-1.89,3.34-1.89c.53,0,1.93.22,1.23,1.1Zm-19.07-7.25c-1.27,1.23-2.5,2.55-3.65,3.96,3.12,0,6.46-.53,8.26-1.45s2.86-2.15,4.26-4.09c1.45-1.93,1.67-3.6-.44-4.13-1.01-.26-2.29.22-3.78,1.41s-2.77,2.37-3.87,3.52l-.79.79Z"/>
      <path class="cls-1" d="m253.2,46.99c-3.91,5.23-8.26,10.06-13.05,14.5-2.9,2.64-8.75,7.08-12.61,3.56-1.27-1.32-1.8-2.99-1.67-5.05s.44-4.04.92-5.84c.13-.57.22-1.05.35-1.54.13-.83.31-1.63.53-2.46-.92-.31-1.27-.97-.44-1.67.35-.31.7-.57,1.01-.88.92-3.65,2.07-7.29,3.38-10.85,1.85-4.97,4.04-9.8,6.55-14.46,1.41-2.55,2.9-5.05,4.48-7.47.22-.31.4-.57.57-.88,1.01-1.76,2.24-3.25,3.78-4.53,2.77-1.98,8-2.2,7.73,2.33-.31,4.39-2.37,9.05-4.44,13.05-.13.22-.22.48-.35.7-4.17,8.53-9.84,15.91-16.96,22.15-.04.18-.04.35-.09.53l-.26.92c-.13.66-.31,1.32-.48,2.02-.83,3.16-1.58,6.59-1.19,9.58.13.75.4,2.02,1.14,2.42,1.01.35,2.42-.75,3.16-1.58.09-.04.13-.09.18-.13,1.49-1.36,2.94-2.72,4.35-4.17,3.21-3.21,6.15-6.64,8.88-10.28,1.01-1.23,5.84-1.63,4.53.04Zm-5.71-32.52c-4.66,7.08-8.44,14.59-11.29,22.54-.48,1.41-.97,2.81-1.41,4.22,3.6-4,6.68-8.39,9.27-13.18,1.93-3.65,3.52-7.38,4.75-11.29.04-.18.13-.35.18-.53.26-.79.48-1.58.66-2.42.04-.4.04-.88-.04-1.36-.04-.31-.04-.62-.04-.83-.13.13-.26.31-.4.44-.48.66-.97,1.36-1.41,2.02l-.26.4Z"/>
      <path class="cls-1" d="m294.33,30.55c.26-.31.53-.66.75-.97.31-.48.62-.92.92-1.41.66-.92,1.23-1.89,1.8-2.9,1.19-2.11,2.24-4.31,3.16-6.55.88-2.29,1.58-4.61,2.15-6.99.04-.13.09-.31.13-.48.35-1.19.53-2.33-.53-2.99-1.19-.48-2.55.31-3.6,1.14-.13.09-.22.18-.31.22-3.3,2.33-6.33,5.23-9.01,8.66-2.68,3.38-5.05,6.86-7.12,10.33-4.53,7.16-8.31,15.21-9.71,23.6-.7,4.17-.7,8.83,1.41,12.57,1.45,2.2,3.52,3.16,6.28,2.9s5.89-1.76,9.36-4.48c3.47-2.77,6.86-6.15,10.11-10.24s5.19-6.24,5.76-6.55c.62-.31,1.23-.31,1.89,0,.66.26.83.79.53,1.63-4.26,5.76-8.88,11.03-13.75,15.82-4.35,4.09-9.36,7.08-15.38,7.6-12.88.79-12.44-15.38-10.02-23.86,3.3-10.94,9.05-21.18,16.3-30.01,3.52-4.35,7.38-8.57,12.26-11.34,3.16-1.76,10.2-3.56,10.77,1.89.18,2.29-.57,4.79-1.41,7.03l-.4,1.05c-.88,2.68-1.98,5.32-3.3,7.82-1.36,2.59-2.9,5.1-4.66,7.43-1.27,1.76-2.68,2.94-4.97,2.72-.88-.04-1.58-.57-1.63-1.45v-.26c.04-.7.48-1.23,1.32-1.58.26-.13.53-.22.79-.26l.09-.09Z"/>
      <path class="cls-1" d="m325.71,49.1c-1.49,5.14-1.93,8.26-1.36,9.32.62,1.01,1.19,1.32,1.76.88,1.63-1.27,3.65-4.04,5.45-3.96.75.09,2.02.48,1.32,1.45-2.24,3.21-5.19,5.93-8.7,6.5-1.8.18-3.08-.35-3.82-1.58s-1.14-2.68-1.19-4.31c-.04-1.45.04-2.94.26-4.39-1.45,1.8-2.94,3.52-4.48,5.19-1.19,1.36-2.64,2.72-4.39,4-1.71,1.27-3.56,1.8-5.54,1.58-3.6-.7-2.46-6.72-1.93-9.27.97-4.26,2.86-8.04,5.71-11.38s6.15-6.06,9.89-8.22c1.36-.83,2.9-1.41,4.57-1.76,1.67-.4,3.25-.18,4.79.57.22.13.4.26.57.4,1.19-1.19,5.62-1.49,4.39.26-3.38,4.61-5.8,9.54-7.29,14.72Zm-7.69-.22c2.07-2.77,4.13-5.54,6.11-8.39-.57-.66-.31-1.32.57-1.8,1.19-.83-.4-2.33-1.19-2.59-1.23-.22-2.46.53-3.56,1.41-.18.13-.35.22-.48.35-2.46,1.71-4.61,3.69-6.5,5.98-3.69,4.53-5.23,9.54-5.36,15.29.31,1.45.7,1.14,1.45.26.13-.13.22-.22.35-.31,1.01-1.01,2.02-2.11,2.94-3.21,1.98-2.29,3.87-4.61,5.67-6.99Z"/>
      <path class="cls-1" d="m355.02,46.15c-2.5.92-5.05.83-6.64-1.58-.31-.53-.53-1.14-.66-1.8-.18-.83-.48-1.54-.92-2.11-.66-.66-1.32-.79-1.93-.31-.57.44-1.1,1.01-1.54,1.71-.09.13-.18.22-.26.35-3.6,4.83-6.46,11.03-8.53,18.59-.13.66-.31,1.27-.44,1.89-.18.75-.35,1.45-.48,2.15-.48,1.98-5.41,2.77-4.97.44.26-1.41.57-2.81.97-4.17,2.24-9.27,4.26-17.71,6.02-25.31.44-1.98,5.32-2.77,4.97-.44-.09.48-.18.92-.26,1.36-.09.57-.18,1.1-.26,1.67-.04.26-.18.53-.35.75-.04.18-.09.35-.13.57s-.13.48-.18.7c1.98-2.59,4.75-4.44,8.09-4.22,1.63.13,2.9.88,3.82,2.15.44.66,2.07,4.7,1.58,4.97,1.01-.4,2.59-.66,3.34.26.53,1.01-.22,2.02-1.23,2.37Z"/>
      <path class="cls-1" d="m406.13,52.17c-1.98,2.15-4.35,3.87-7.08,5.05-.88.44-1.93.83-3.12,1.23-1.19.35-2.33.4-3.34.09-1.01-.44-1.63-1.27-1.8-2.46-.18-1.23-.22-2.33-.18-3.34,0-.04,0-.09.04-.13,0-.4,0-.79.04-1.19.18-1.93.18-3.96-.75-5.67-3.21,2.15-5.76,5.45-7.91,8.66-.44.66-.88,1.36-1.36,2.15-1.54,2.64-3.25,5.27-5.84,6.33-3.56,1.36-5.76.04-5.23-3.82.66-3.78,1.45-7.51,2.37-11.25.04-.26.13-.53.18-.83-.4.83-.79,1.58-1.14,2.33-.31.75-.62,1.32-.83,1.76-1.71,3.03-3.38,6.02-5.05,9.05-1.19,2.33-2.5,4.31-4.04,5.98s-3.69,2.59-6.46,2.77h-.04c-.31.09-1.32.09-1.32-.35-.13-4.79,1.27-9.67,2.81-14.28.22-.66.44-1.32.62-1.98,1.63-5.23,3.47-10.42,5.54-15.56-.22-.04-.31-.13-.26-.26.31-.53.66-1.05,1.01-1.58.66-1.01,5.23-1.89,4.83-.88-2.2,5.41-4.17,10.85-5.93,16.39-.22.75-.48,1.49-.7,2.24-1.27,3.87-2.55,7.91-2.94,11.95.22-.31.35-.57.44-.7l1.58-2.9c.26-.48.53-.92.79-1.41.83-1.45,1.63-2.86,2.42-4.31s1.58-2.86,2.37-4.31l.53-.92c1.05-2.07,2.24-3.87,3.56-5.49s3.16-2.81,5.54-3.47c.4-.13,2.77-.62,2.64.35-.57,2.5-1.1,5.05-1.63,7.56-.53,2.37-1.05,4.75-1.54,7.12-.04.26-.13.53-.18.75-.22.83-.35,1.63-.35,2.46v.09c.48-.66.92-1.36,1.41-2.07,1.93-2.99,4.04-5.71,6.37-8.17,2.33-2.5,5.14-4.44,8.53-5.8.66-.26,2.46-.79,3.16-.26,1.89,2.11,1.93,4.57,1.71,7.21-.04.62-.04,1.23-.04,1.8-.04.92.04,1.8.22,2.68,0-.09.44,1.76.31,1.89.92.44,5.14-3.6,5.58-4.13.75-.75,2.24-1.19,3.3-1.19.53,0,1.89.04,1.19.83Z"/>
      <path class="cls-1" d="m433.02,49.71c-7.29,6.55-12.79,10.5-16.44,11.91-3.56,1.41-6.9,1.58-10.9.48-1.8-.57-2.99-1.63-3.47-3.16s-.53-3.21-.13-4.97c.88-3.6,2.77-6.94,5.71-10.02s5.98-5.54,9.18-7.38c2.94-1.76,6.15-2.68,9.62-1.8,3.69,1.01,1.8,4.97.18,7.03-2.33,2.68-5.01,4.53-8.13,5.45s-6.42,1.41-9.89,1.45c-.22.4-.44.83-.66,1.23-.75,1.45-1.27,3.16-1.49,5.1-.22,1.89.44,3.38,1.93,4.48,1.23.66,2.64.7,4.17.18,1.58-.53,3.03-1.14,4.35-1.89.4-.22.7-.4,1.01-.53,5.27-3.25,8.75-5.49,10.37-6.77s2.77-1.89,3.34-1.89c.53,0,1.93.22,1.23,1.1Zm-19.07-7.25c-1.27,1.23-2.5,2.55-3.65,3.96,3.12,0,6.46-.53,8.26-1.45s2.86-2.15,4.26-4.09c1.45-1.93,1.67-3.6-.44-4.13-1.01-.26-2.29.22-3.78,1.41s-2.77,2.37-3.87,3.52l-.79.79Z"/>
      <path class="cls-1" d="m444.45,63.51c-.62-2.42-.66-5.27-.09-8.48-8.22,9.23-12.83,13.71-13.8,13.4-2.77-.7-4.31-1.93-4.57-3.69-.22-1.8-.13-3.65.26-5.62.44-1.98.88-3.56,1.32-4.75,2.11-5.62,4.79-10.94,8.04-16,.88-1.36,5.76-1.85,4.57.09-2.5,4-4.7,8.13-6.59,12.44-.92,1.98-1.67,4.13-2.29,6.5-.57,2.33-.62,4.61-.13,6.77l15.56-18.24c.7-1.05,5.32-1.89,4.75-.26-.26.57-.66,1.76-1.23,3.47-.53,1.71-.97,3.52-1.32,5.49s-.48,4.09-.44,6.33c.09,2.24.83,3.21,2.24,2.9.7-.13,1.76-.88,3.12-2.33,1.41-1.45,3.3-3.96,5.71-7.47.88-.92,1.41-.79,1.54.4s-.7,3.08-2.59,5.71-3.47,4.44-4.79,5.45c-1.27.97-2.77,1.41-4.44,1.36-2.59.13-4.17-1.05-4.83-3.47Z"/>
    </g>
  </g>
</svg>