<?xml version="1.0" encoding="UTF-8"?>
<svg id="Layer_2" data-name="Layer 2" xmlns="http://www.w3.org/2000/svg" viewBox="0 0 344.04 97.46">
  <defs>
    <style>
      .cls-1 {
        fill: #69725d;
      }
    </style>
  </defs>
  <g id="Layer_1-2" data-name="Layer 1">
    <g>
      <path class="cls-1" d="m62.69,26.66c-3.12,4.7-7.03,8.75-11.82,12.08-4.79,3.3-9.8,5.89-15.12,7.69-3.12,1.1-6.33,1.89-9.62,2.42-.57.13-1.19.22-1.8.35-.31.04-.57.13-.83.18-.53,1.41-1.01,2.81-1.49,4.26-1.76,5.27-3.25,10.59-4.48,16-.66,2.77-1.19,5.58-1.67,8.39-.4,2.11-.48,4.31,1.23,5.76,1.23,1.1-3.21,2.81-4.57,1.89-1.45-1.36-2.07-3.12-1.89-5.27.13-2.15.53-4.22,1.1-6.2.18-.7.35-1.36.48-1.93,1.23-5.76,2.77-11.43,4.57-17.01.62-1.89,1.27-3.74,1.93-5.54-1.63-.22-3.08-1.23-2.33-2.99.75-1.54,2.64-2.07,4.26-2.02,3.08-7.56,6.68-14.85,10.77-21.93.83-1.27,5.62-1.89,4.53.04-4.35,7.51-8.13,15.34-11.25,23.47.35-.04.7-.13,1.1-.18.79-.13,1.58-.26,2.33-.4,2.77-.57,5.49-1.36,8.13-2.37,4.61-1.8,8.83-4.22,12.74-7.29,6.24-4.88,13.54-12.52,11.95-21.18-.66-3.12-2.11-5.41-4.44-6.86s-4.97-2.33-7.95-2.64c-2.94-.31-5.76-.31-8.44,0-8.92,1.1-16.48,4.61-22.76,10.55-6.24,5.93-10.37,13.18-12.39,21.84-.44,1.8-5.36,2.5-4.92.57,1.45-6.24,4.04-11.91,7.78-17.05s8.35-9.36,13.89-12.57c4.83-2.77,10.06-4.7,15.69-5.8s11.16-1.05,16.66.04c4.97,1.05,9.4,3.69,11.29,8.57,1.76,5.23.35,10.59-2.64,15.12Z"/>
      <path class="cls-1" d="m78.73,48.28c-2.5.92-5.05.83-6.64-1.58-.31-.53-.53-1.14-.66-1.8-.18-.83-.48-1.54-.92-2.11-.66-.66-1.32-.79-1.93-.31-.57.44-1.1,1.01-1.54,1.71-.09.13-.18.22-.26.35-3.6,4.83-6.46,11.03-8.53,18.59-.13.66-.31,1.27-.44,1.89-.18.75-.35,1.45-.48,2.15-.48,1.98-5.41,2.77-4.97.44.26-1.41.57-2.81.97-4.17,2.24-9.27,4.26-17.71,6.02-25.31.44-1.98,5.32-2.77,4.97-.44-.09.48-.18.92-.26,1.36-.09.57-.18,1.1-.26,1.67-.04.26-.18.53-.35.75-.04.18-.09.35-.13.57s-.13.48-.18.7c1.98-2.59,4.75-4.44,8.09-4.22,1.63.13,2.9.88,3.82,2.15.44.66,2.07,4.7,1.58,4.97,1.01-.4,2.59-.66,3.34.26.53,1.01-.22,2.02-1.23,2.37Z"/>
      <path class="cls-1" d="m108.09,51.84c-7.29,6.55-12.79,10.5-16.44,11.91-3.56,1.41-6.9,1.58-10.9.48-1.8-.57-2.99-1.63-3.47-3.16s-.53-3.21-.13-4.97c.88-3.6,2.77-6.94,5.71-10.02s5.98-5.54,9.18-7.38c2.94-1.76,6.15-2.68,9.62-1.8,3.69,1.01,1.8,4.97.18,7.03-2.33,2.68-5.01,4.53-8.13,5.45s-6.42,1.41-9.89,1.45c-.22.4-.44.83-.66,1.23-.75,1.45-1.27,3.16-1.49,5.1-.22,1.89.44,3.38,1.93,4.48,1.23.66,2.64.7,4.17.18,1.58-.53,3.03-1.14,4.35-1.89.4-.22.7-.4,1.01-.53,5.27-3.25,8.75-5.49,10.37-6.77s2.77-1.89,3.34-1.89c.53,0,1.93.22,1.23,1.1Zm-19.07-7.25c-1.27,1.23-2.5,2.55-3.65,3.96,3.12,0,6.46-.53,8.26-1.45s2.86-2.15,4.26-4.09c1.45-1.93,1.67-3.6-.44-4.13-1.01-.26-2.29.22-3.78,1.41s-2.77,2.37-3.87,3.52l-.79.79Z"/>
      <path class="cls-1" d="m193.91,29.87c-2.59,8.75-6.11,17.14-10.63,25.09-2.24,3.91-4.7,7.65-7.43,11.21-2.5,3.38-5.49,6.59-9.54,8.04-3.52,1.27-7.38.97-10.2-1.63-2.59-2.5-3.6-6.15-3.91-9.71-.35-5.23,0-10.42,1.1-15.56-2.55,4.53-5.1,9.01-7.69,13.49-2.11,3.74-4.44,7.25-6.99,10.63-1.01,1.36-2.15,2.55-3.52,3.56-1.32,1.05-2.86,1.49-4.66,1.27-1.8-.4-2.99-1.41-3.56-3.03s-.92-3.25-.97-4.88c-.22-4.04-.04-8.09.62-12.08,1.23-8.44,3.38-16.74,5.62-24.96.09-.35.18-.7.31-1.05,1.14-4.17,2.2-8.39,3.21-12.66.13-.66.31-1.32.53-2.02.48-1.63.83-3.34,1.05-5.1l-.18-6.68c.57-.66,1.36-1.05,2.33-1.1,1.01-.04,1.71.31,2.15,1.14.75,1.71.97,3.52.75,5.45-.22,1.89-.62,3.78-1.1,5.58-.13.62-.31,1.23-.44,1.8-1.1,4.7-2.29,9.4-3.56,14.06-.04.04-.04.13-.04.18-2.64,9.36-5.05,18.9-6.11,28.61-.31,2.68-.4,5.32-.22,8,.09.97.26,1.93.48,2.9.04.13.04.22.09.31.31,1.45.57,1.93,1.85.83,1.41-1.36,2.64-2.94,3.65-4.83.26-.44.53-.83.79-1.23,1.27-2.02,2.5-4.04,3.69-6.11,3.56-6.2,7.03-12.35,10.5-18.54,1.63-2.9,3.25-5.8,4.88-8.66.7-1.32,5.36-2.46,4.83.04-.44,1.8-.88,3.65-1.36,5.49-1.14,4.31-2.07,8.7-2.81,13.14-.7,4.44-.7,8.83.04,13.1.97,4.97,4.39,9.71,9.62,5.84,3.56-2.81,6.42-7.12,8.83-11.03.13-.22.31-.44.44-.66,5.14-8.31,9.18-17.09,12.08-26.46.13-.35.22-.7.35-1.05,2.77-8.61,6.37-20,.31-27.77-1.49-1.98,3.12-3.91,4.53-2.15,6.55,8.39,2.99,20,.26,29.18Z"/>
      <path class="cls-1" d="m217.43,51.84c-7.29,6.55-12.79,10.5-16.44,11.91-3.56,1.41-6.9,1.58-10.9.48-1.8-.57-2.99-1.63-3.47-3.16s-.53-3.21-.13-4.97c.88-3.6,2.77-6.94,5.71-10.02s5.98-5.54,9.18-7.38c2.94-1.76,6.15-2.68,9.62-1.8,3.69,1.01,1.8,4.97.18,7.03-2.33,2.68-5.01,4.53-8.13,5.45s-6.42,1.41-9.89,1.45c-.22.4-.44.83-.66,1.23-.75,1.45-1.27,3.16-1.49,5.1-.22,1.89.44,3.38,1.93,4.48,1.23.66,2.64.7,4.17.18,1.58-.53,3.03-1.14,4.35-1.89.4-.22.7-.4,1.01-.53,5.27-3.25,8.75-5.49,10.37-6.77s2.77-1.89,3.34-1.89c.53,0,1.93.22,1.23,1.1Zm-19.07-7.25c-1.27,1.23-2.5,2.55-3.65,3.96,3.12,0,6.46-.53,8.26-1.45s2.86-2.15,4.26-4.09c1.45-1.93,1.67-3.6-.44-4.13-1.01-.26-2.29.22-3.78,1.41s-2.77,2.37-3.87,3.52l-.79.79Z"/>
      <path class="cls-1" d="m257.77,9.61c-2.68,6.9-5.98,13.54-9.89,19.82-1.32,3.56-2.59,7.12-3.87,10.68-1.98,5.76-3.6,10.99-4.83,15.69-1.19,4.7-1.89,7.73-2.02,9.18-.31,2.81.13,4.26.79,5.14.31-.04.57-.09.83-.09.31,0,2.07,0,1.14.7-1.54,1.1-3.87,2.02-5.76,1.36-1.05-.53-1.71-1.32-1.93-2.37s-.22-2.94.09-5.71.79-5.05,1.45-6.9c.7-1.89,1.58-4.39,2.59-7.51.13-.48.31-.92.44-1.41.44-1.36.88-2.77,1.36-4.13-.31.09-.66.18-1.05.22-2.94,4.22-6.11,7.91-9.49,11.12-2.81,2.68-6.06,5.14-9.54,5.49s-5.27-.18-4.7-3.69c1.67-7.47,5.76-13.23,12.3-17.27,2.86-1.76,6.37-2.99,9.71-2.5.88.13,1.67.4,2.33.88,1.89-2.59,3.65-5.27,5.36-8.04.48-1.32,1.01-2.64,1.49-4,.4-1.01.75-2.02,1.14-3.12.79-2.42,1.71-4.79,2.81-7.08,1.1-2.33,2.64-4.22,4.61-5.76.44-.35,5.01-1.89,4.61-.7Zm-22.98,32.52c-.4-1.27-1.19-2.15-2.46-2.64-1.05-.26-2.11-.09-3.16.57-1.01.66-1.93,1.32-2.72,2.07l-.13.13c-2.64,2.33-4.7,5.05-6.15,8.26-.75,1.54-1.32,3.16-1.71,4.83,0,.04,0,.13-.04.22-.13.4-.35,1.19-.4,1.89,0,.31.22.53.7.62.48.04,1.63-.48,3.38-1.63,1.8-1.19,3.91-3.16,6.42-6.02,2.2-2.37,4.31-5.14,6.28-8.31Z"/>
      <path class="cls-1" d="m286.46,9.61c-2.68,6.9-5.98,13.54-9.89,19.82-1.32,3.56-2.59,7.12-3.87,10.68-1.98,5.76-3.6,10.99-4.83,15.69-1.19,4.7-1.89,7.73-2.02,9.18-.31,2.81.13,4.26.79,5.14.31-.04.57-.09.83-.09.31,0,2.07,0,1.14.7-1.54,1.1-3.87,2.02-5.76,1.36-1.05-.53-1.71-1.32-1.93-2.37s-.22-2.94.09-5.71.79-5.05,1.45-6.9c.7-1.89,1.58-4.39,2.59-7.51.13-.48.31-.92.44-1.41.44-1.36.88-2.77,1.36-4.13-.31.09-.66.18-1.05.22-2.94,4.22-6.11,7.91-9.49,11.12-2.81,2.68-6.06,5.14-9.54,5.49s-5.27-.18-4.7-3.69c1.67-7.47,5.76-13.23,12.3-17.27,2.86-1.76,6.37-2.99,9.71-2.5.88.13,1.67.4,2.33.88,1.89-2.59,3.65-5.27,5.36-8.04.48-1.32,1.01-2.64,1.49-4,.4-1.01.75-2.02,1.14-3.12.79-2.42,1.71-4.79,2.81-7.08,1.1-2.33,2.64-4.22,4.61-5.76.44-.35,5.01-1.89,4.61-.7Zm-22.98,32.52c-.4-1.27-1.19-2.15-2.46-2.64-1.05-.26-2.11-.09-3.16.57-1.01.66-1.93,1.32-2.72,2.07l-.13.13c-2.64,2.33-4.7,5.05-6.15,8.26-.75,1.54-1.32,3.16-1.71,4.83,0,.04,0,.13-.04.22-.13.4-.35,1.19-.4,1.89,0,.31.22.53.7.62.48.04,1.63-.48,3.38-1.63,1.8-1.19,3.91-3.16,6.42-6.02,2.2-2.37,4.31-5.14,6.28-8.31Z"/>
      <path class="cls-1" d="m290.81,57.11c-2.64,3.38-5.8,6.2-9.45,8.39-1.27.75-2.77,1.32-4.57,1.71-1.76.35-3.21-.09-4.31-1.36-.83-1.32-1.14-2.94-.88-4.92.31-1.98.7-3.78,1.19-5.41.09-.31.18-.57.22-.79,1.27-4.79,3.3-9.23,6.02-13.36.66-.88,1.85-1.27,2.86-1.41.31-.09,2.46-.13,2.02.62-3.65,5.54-6.02,11.6-7.03,18.15,0,.13,0,.26-.04.4-.31,1.41-.35,2.77-.04,4.09.09.35.62,1.49.83,1.67.35.13,1.01-.35,1.58-.75.13-.09.22-.18.31-.22,2.59-1.85,4.83-4.04,6.81-6.55.79-1.01,5.49-1.63,4.48-.26Zm-9.05-23.95c-.22-1.19.04-2.33.79-3.34.75-1.05,1.67-1.8,2.68-2.24.31-.13.62-.26.97-.31.44-.35,1.36-.31,2.81.09,1.01.44,1.45,1.05,1.32,1.89-.22,1.58-.7,2.37-1.76,3.3-.92.92-2.02,1.58-3.25,1.98-1.41.4-3.03.18-3.56-1.36Z"/>
      <path class="cls-1" d="m305.45,65.64c-.62-2.42-.66-5.27-.09-8.48-8.22,9.23-12.83,13.71-13.8,13.4-2.77-.7-4.31-1.93-4.57-3.69-.22-1.8-.13-3.65.26-5.62.44-1.98.88-3.56,1.32-4.75,2.11-5.62,4.79-10.94,8.04-16,.88-1.36,5.76-1.85,4.57.09-2.5,4-4.7,8.13-6.59,12.44-.92,1.98-1.67,4.13-2.29,6.5-.57,2.33-.62,4.61-.13,6.77l15.56-18.24c.7-1.05,5.32-1.89,4.75-.26-.26.57-.66,1.76-1.23,3.47-.53,1.71-.97,3.52-1.32,5.49s-.48,4.09-.44,6.33c.09,2.24.83,3.21,2.24,2.9.7-.13,1.76-.88,3.12-2.33,1.41-1.45,3.3-3.96,5.71-7.47.88-.92,1.41-.79,1.54.4s-.7,3.08-2.59,5.71-3.47,4.44-4.79,5.45c-1.27.97-2.77,1.41-4.44,1.36-2.59.13-4.17-1.05-4.83-3.47Z"/>
      <path class="cls-1" d="m344.03,40.28c-3.08,13.32-7.25,26.28-12.52,38.89-2.15,5.14-5.19,9.45-9.1,12.92s-8.75,5.23-14.55,5.36c-1.05-.04-.92-.53-.26-1.1.83-.7,2.37-.92,3.47-.92,2.77-.09,5.23-1.1,7.34-2.99s3.82-3.96,5.19-6.28c2.46-4.09,4.22-8.61,5.84-13.14.09-.22.18-.48.26-.7,1.45-3.91,2.81-7.91,4.09-11.91-1.01,1.19-2.07,2.29-3.21,3.34-1.27,1.23-2.72,2.37-4.35,3.43-1.63,1.01-3.34,1.54-5.19,1.54-4.17-.22-3.69-5.45-3.38-8.39.44-4.09,1.71-8.13,3.78-12.04,2.11-3.91,4.97-7.03,8.53-9.27,1.1-.7,2.5-1.27,4.17-1.71,1.67-.48,3.16-.4,4.44.26,1.01.66,1.58,1.58,1.71,2.77,1.45-.62,3.91-.88,3.74-.04Zm-7.87,9.32c-.4.13-.7.18-1.01.22-.18.09-2.42.26-1.93-.44,1.41-2.24,3.56-7.51,1.19-9.8-.44-.53-.53-.48-.75-.35-.04.04-.13.09-.26.13-.53.31-1.01.7-1.49,1.19-.13.09-.22.18-.31.31-1.19,1.1-2.29,2.33-3.25,3.6-3.78,5.14-5.76,10.85-5.93,17.18.04,1.19.22,2.33.53,3.38.04.22.13.44.18.66.04.04.04.09.09.13.09.09.18.18.26.31.26-.22.53-.4.83-.57s.62-.35.83-.57c2.42-2.02,4.48-4.31,6.28-6.9,1.89-2.68,3.47-5.49,4.75-8.48Z"/>
    </g>
  </g>
</svg>