<?xml version="1.0" encoding="UTF-8"?>
<svg id="Layer_2" data-name="Layer 2" xmlns="http://www.w3.org/2000/svg" viewBox="0 0 285.14 110.3">
  <defs>
    <style>
      .cls-1 {
        fill: #69725d;
      }
    </style>
  </defs>
  <g id="Layer_1-2" data-name="Layer 1">
    <g>
      <path class="cls-1" d="m86.44,25.31c-5.14,7.68-10.92,14.85-17.46,21.39-1.21,1.27-3.24,2.03-5.01,1.33-1.46-.57-1.97-2.03-.89-3.3,7.55-7.49,14.16-15.81,19.68-24.88,1.33-2.22,2.41-4.51,1.65-7.11-1.08-2.86-3.11-4.82-6.03-5.9-5.14-1.84-10.54-.51-15.3,1.97-8.38,4.38-15.81,10.03-22.28,16.82-3.43,3.3-6.22,6.92-8.38,10.79-2.09,3.87-2.41,8.25-.95,13.14,1.46,3.94,3.81,7.11,6.92,9.46s6.54,4.32,10.28,5.9c.63.32,1.33.63,2.03.95,5.84,2.48,12,5.59,15.36,10.85,3.55,5.97-4.76,14.09-9.01,17.52-6.54,5.14-14.41,8.51-22.28,11.04-4.06,1.46-8.38,2.67-12.89,3.62s-8.95,1.14-13.27.44c-3.11-.51-6.98-1.9-8.32-5.01-.76-2.03.06-3.43,1.08-4.76.7-.83,1.21-1.84,1.46-2.98.63-2.98,7.74-4.06,7.24-.57-.32,1.08-.76,2.03-1.33,2.79-.44.51-.76,1.08-1.08,1.78-1.46,3.62,4.32,4,6.54,4.06,5.59,0,11.24-1.46,16.5-3.17,4.57-1.27,9.14-2.98,13.71-5.14,4.63-2.22,8.51-5.14,11.68-8.82,1.08-1.21,1.97-2.54,2.73-4.06.76-1.59.76-3.11-.06-4.7-.83-1.46-2.41-2.54-3.75-3.49-.13-.06-.25-.19-.38-.32-3.05-1.97-6.28-3.68-9.65-5.14-.19-.06-.32-.13-.44-.19-6.79-2.98-13.39-6.47-17.52-12.82-4.06-6.35-5.01-13.9-1.71-20.76,4-7.68,10.79-14.22,17.46-19.61,10.85-9.2,31.8-23.36,45.26-10.98,6.79,6.41,2.79,13.39-1.59,19.87Z"/>
      <path class="cls-1" d="m120.2,89.68c-1.46,3.68-3.94,6.54-7.36,8.51-1.33.76-2.86,1.27-4.57,1.52s-3.05-.25-4.06-1.59c-1.71-2.6-1.27-7.05-.7-10.66.06-.76.19-1.46.25-2.03.19-1.65.38-3.3.57-5.01.7-4.06.95-8.12.83-12.19-.06-.06-.06-.19-.06-.32,0-.95-.13-2.09-.57-2.67-.06-.19-.13-.44-.19-.7v-.13c-.7.38-1.4.83-2.03,1.27-2.09,1.4-4,2.98-5.78,4.76-3.11,3.24-5.84,6.73-8.32,10.47-4.19,6.41-8.19,12.89-11.93,19.55l-4.57,7.74c-.95,1.46-7.74,3.24-7.05,1.08,10.85-29.07,22.15-57.95,33.96-86.65,1.02-1.97,7.55-2.79,7.05-1.08-8.06,19.49-15.87,39.1-23.42,58.78,4.38-6.54,9.65-12.38,16.44-16.5,1.46-.95,3.17-1.84,5.08-2.54,1.97-.76,3.81-.83,5.65-.19,1.59.76,2.48,2.03,2.67,3.81.25,1.78.32,3.49.13,5.21,0,.25,0,.51-.06.83-.19,2.73-.44,5.52-.83,8.25-.38,2.86-.63,5.65-.83,8.51-.06,1.52-.06,3.05,0,4.57v.76c.06.32.06.57.06.83.19.38.25.76.13,1.08.06-.06.06-.13.13-.19l.25-.25c.89-1.14,1.59-2.35,2.09-3.68,1.02-1.97,7.62-2.86,7.05-1.14Z"/>
      <path class="cls-1" d="m172.38,82.7c-3.24,4.63-7.43,8.25-12.44,10.92-1.71.95-3.81,1.71-6.16,2.29-2.35.51-4.38.13-6.16-1.14-1.33-1.21-2.03-2.98-2.09-5.27,0-2.29.32-4.57.89-6.92-1.71,1.97-3.49,3.87-5.33,5.78-4.89,5.14-14.28,14.03-22.15,10.16-2.86-1.52-4.19-3.87-4.13-6.98.06-3.17.83-6.41,2.29-9.71s2.73-5.9,3.94-7.87c.19-.25.38-.57.57-1.02,1.02-1.84,2.41-4.06,4.25-6.73,1.84-2.73,3.81-4.82,5.97-6.28,2.16-1.52,4.25-1.4,6.28.38,1.21,1.33-.76,2.86-3.24,3.36-.51.76-1.46,2.03-2.03,2.86-.13.19-.19.25-.25.32-.89,1.21-1.71,2.48-2.54,3.68-1.9,2.86-3.62,5.84-5.14,8.95-1.59,3.36-2.92,7.36-2.6,11.24.32,2.48,1.14,3.68,2.6,3.62,1.46-.13,3.05-.83,4.7-2.09,4.25-3.49,8.06-7.36,11.43-11.74l2.29-2.67c1.84-2.16,3.75-4.32,5.59-6.47l6.09-7.05c.83-1.08,1.78-2.16,2.73-3.17,1.71-1.84,8.63-1.84,5.71,1.46-.83.95-1.59,1.9-2.41,2.86-4.63,6.03-7.24,12.82-7.87,20.38,0,.19,0,.38-.06.57-.25,1.71-.32,4.44.76,5.21.7.32,2.48-.76,3.36-1.4.19-.06.32-.19.38-.25,3.24-1.97,5.9-4.51,8.12-7.62,1.46-1.97,8.57-2.54,6.67.38Z"/>
      <path class="cls-1" d="m210.66,37.18c-1.59.76-3.17,1.08-4.89.95-6.6-.57-13.2-.76-19.8-.63-1.71,4.89-3.36,9.78-4.95,14.66-3.24,9.33-5.71,18.92-7.49,28.63-.7,4.51-1.14,9.01-1.21,13.52v.32c-.13,1.78.06,3.55.57,5.27.89,2.48,1.97.83,2.86-.76.13-.19.25-.32.32-.51,1.59-2.86,8.95-2.48,6.79.95-2.09,3.75-5.14,7.17-9.71,7.49-4,0-6.67-2.48-7.62-6.22-1.21-5.27-.51-11.17.32-16.5.06-.32.06-.57.13-.83.83-5.78,2.03-11.43,3.62-17.01,2.48-9.52,5.4-19.04,8.76-28.63-9.71.63-19.3,2.03-28.82,4.13-.76.25-2.79.63-2.79-.51.13-.89,2.79-1.52,3.94-1.78.06,0,.19,0,.25-.06,9.33-2.09,18.79-3.49,28.31-4.25,4.51-12.19,10.22-23.74,17.84-33.9,1.71-2.29,7.68-2.16,6.41,1.65-.7,2.09-1.78,4-3.24,5.65-.32.44-.76.76-1.33.95-4.89,7.93-8.89,16.38-12,25.2,8.19-.32,16.44-.13,24.69.57,1.65.19-.51,1.33-.95,1.65Z"/>
      <path class="cls-1" d="m239.16,37.18c-1.59.76-3.17,1.08-4.89.95-6.6-.57-13.2-.76-19.8-.63-1.71,4.89-3.36,9.78-4.95,14.66-3.24,9.33-5.71,18.92-7.49,28.63-.7,4.51-1.14,9.01-1.21,13.52v.32c-.13,1.78.06,3.55.57,5.27.89,2.48,1.97.83,2.86-.76.13-.19.25-.32.32-.51,1.59-2.86,8.95-2.48,6.79.95-2.09,3.75-5.14,7.17-9.71,7.49-4,0-6.67-2.48-7.62-6.22-1.21-5.27-.51-11.17.32-16.5.06-.32.06-.57.13-.83.83-5.78,2.03-11.43,3.62-17.01,2.48-9.52,5.4-19.04,8.76-28.63-9.71.63-19.3,2.03-28.82,4.13-.76.25-2.79.63-2.79-.51.13-.89,2.79-1.52,3.94-1.78.06,0,.19,0,.25-.06,9.33-2.09,18.79-3.49,28.31-4.25,4.51-12.19,10.22-23.74,17.84-33.9,1.71-2.29,7.68-2.16,6.41,1.65-.7,2.09-1.78,4-3.24,5.65-.32.44-.76.76-1.33.95-4.89,7.93-8.89,16.38-12,25.2,8.19-.32,16.44-.13,24.69.57,1.65.19-.51,1.33-.95,1.65Z"/>
      <path class="cls-1" d="m251.54,74.89c-5.65,7.55-11.93,14.54-18.85,20.95-4.19,3.81-12.63,10.22-18.22,5.14-1.84-1.9-2.6-4.32-2.41-7.3s.63-5.84,1.33-8.44c.19-.83.32-1.52.51-2.22.19-1.21.44-2.35.76-3.55-1.33-.44-1.84-1.4-.63-2.41.51-.44,1.02-.83,1.46-1.27,1.33-5.27,2.98-10.54,4.89-15.68,2.67-7.17,5.84-14.16,9.46-20.88,2.03-3.68,4.19-7.3,6.47-10.79.32-.44.57-.83.83-1.27,1.46-2.54,3.24-4.7,5.46-6.54,4-2.86,11.55-3.17,11.17,3.36-.44,6.35-3.43,13.08-6.41,18.85-.19.32-.32.7-.51,1.02-6.03,12.31-14.22,22.98-24.5,31.99-.06.25-.06.51-.13.76l-.38,1.33c-.19.95-.44,1.9-.7,2.92-1.21,4.57-2.29,9.52-1.71,13.84.19,1.08.57,2.92,1.65,3.49,1.46.51,3.49-1.08,4.57-2.29.13-.06.19-.13.25-.19,2.16-1.97,4.25-3.94,6.28-6.03,4.63-4.63,8.89-9.58,12.82-14.85,1.46-1.78,8.44-2.35,6.54.06Zm-8.25-46.97c-6.73,10.22-12.19,21.07-16.31,32.56-.7,2.03-1.4,4.06-2.03,6.09,5.21-5.78,9.65-12.12,13.39-19.04,2.79-5.27,5.08-10.66,6.86-16.31.06-.25.19-.51.25-.76.38-1.14.7-2.29.95-3.49.06-.57.06-1.27-.06-1.97-.06-.44-.06-.89-.06-1.21-.19.19-.38.44-.57.63-.7.95-1.4,1.97-2.03,2.92l-.38.57Z"/>
      <path class="cls-1" d="m284.86,78.82c-10.54,9.46-18.47,15.17-23.74,17.2-5.14,2.03-9.97,2.29-15.74.7-2.6-.83-4.32-2.35-5.01-4.57s-.76-4.63-.19-7.17c1.27-5.21,4-10.03,8.25-14.47s8.63-8,13.27-10.66c4.25-2.54,8.89-3.87,13.9-2.6,5.33,1.46,2.6,7.17.25,10.16-3.36,3.87-7.24,6.54-11.74,7.87s-9.27,2.03-14.28,2.09c-.32.57-.63,1.21-.95,1.78-1.08,2.09-1.84,4.57-2.16,7.36-.32,2.73.63,4.89,2.79,6.47,1.78.95,3.81,1.02,6.03.25,2.29-.76,4.38-1.65,6.28-2.73.57-.32,1.02-.57,1.46-.76,7.62-4.7,12.63-7.93,14.98-9.78s4-2.73,4.82-2.73c.76,0,2.79.32,1.78,1.59Zm-27.55-10.47c-1.84,1.78-3.62,3.68-5.27,5.71,4.51,0,9.33-.76,11.93-2.09s4.13-3.11,6.16-5.9c2.09-2.79,2.41-5.21-.63-5.97-1.46-.38-3.3.32-5.46,2.03s-4,3.43-5.59,5.08l-1.14,1.14Z"/>
    </g>
  </g>
</svg>