<?xml version="1.0" encoding="UTF-8"?>
<svg id="Layer_2" data-name="Layer 2" xmlns="http://www.w3.org/2000/svg" viewBox="0 0 521.66 144.71">
  <defs>
    <style>
      .cls-1 {
        fill: #69725d;
      }
    </style>
  </defs>
  <g id="Layer_1-2" data-name="Layer 1">
    <g>
      <path class="cls-1" d="m98.33,47.09c-3.75,12.63-8.82,24.76-15.36,36.25-3.24,5.65-6.79,11.04-10.73,16.19-3.62,4.89-7.93,9.52-13.77,11.62-5.08,1.84-10.66,1.4-14.73-2.35-3.75-3.62-5.21-8.89-5.65-14.03-.51-7.55,0-15.04,1.59-22.47-3.68,6.54-7.36,13.01-11.11,19.49-3.05,5.4-6.41,10.47-10.09,15.36-1.46,1.97-3.11,3.68-5.08,5.14-1.9,1.52-4.13,2.16-6.73,1.84-2.6-.57-4.32-2.03-5.14-4.38s-1.33-4.7-1.4-7.05c-.32-5.84-.06-11.68.89-17.46,1.78-12.19,4.89-24.18,8.12-36.05.13-.51.25-1.02.44-1.52,1.65-6.03,3.17-12.12,4.63-18.28.19-.95.44-1.9.76-2.92.7-2.35,1.21-4.82,1.52-7.36l-.25-9.65c.83-.95,1.97-1.52,3.36-1.59,1.46-.06,2.48.44,3.11,1.65,1.08,2.48,1.4,5.08,1.08,7.87-.32,2.73-.89,5.46-1.59,8.06-.19.89-.44,1.78-.63,2.6-1.59,6.79-3.3,13.58-5.14,20.31-.06.06-.06.19-.06.25-3.81,13.52-7.3,27.29-8.82,41.32-.44,3.87-.57,7.68-.32,11.55.13,1.4.38,2.79.7,4.19.06.19.06.32.13.44.44,2.09.83,2.79,2.67,1.21,2.03-1.97,3.81-4.25,5.27-6.98.38-.63.76-1.21,1.14-1.78,1.84-2.92,3.62-5.84,5.33-8.82,5.14-8.95,10.16-17.84,15.17-26.79,2.35-4.19,4.7-8.38,7.05-12.5,1.02-1.9,7.74-3.55,6.98.06-.63,2.6-1.27,5.27-1.97,7.93-1.65,6.22-2.98,12.57-4.06,18.98-1.02,6.41-1.02,12.76.06,18.92,1.4,7.17,6.35,14.03,13.9,8.44,5.14-4.06,9.27-10.28,12.76-15.93.19-.32.44-.63.63-.95,7.43-12,13.27-24.69,17.46-38.21.19-.51.32-1.02.51-1.52,4-12.44,9.2-28.88.44-40.12-2.16-2.86,4.51-5.65,6.54-3.11,9.46,12.12,4.32,28.88.38,42.15Z"/>
      <path class="cls-1" d="m132.29,78.82c-10.54,9.46-18.47,15.17-23.74,17.2-5.14,2.03-9.97,2.29-15.74.7-2.6-.83-4.32-2.35-5.01-4.57s-.76-4.63-.19-7.17c1.27-5.21,4-10.03,8.25-14.47s8.63-8,13.27-10.66c4.25-2.54,8.89-3.87,13.9-2.6,5.33,1.46,2.6,7.17.25,10.16-3.36,3.87-7.24,6.54-11.74,7.87s-9.27,2.03-14.28,2.09c-.32.57-.63,1.21-.95,1.78-1.08,2.09-1.84,4.57-2.16,7.36-.32,2.73.63,4.89,2.79,6.47,1.78.95,3.81,1.02,6.03.25,2.29-.76,4.38-1.65,6.28-2.73.57-.32,1.02-.57,1.46-.76,7.62-4.7,12.63-7.93,14.98-9.78s4-2.73,4.82-2.73c.76,0,2.79.32,1.78,1.59Zm-27.55-10.47c-1.84,1.78-3.62,3.68-5.27,5.71,4.51,0,9.33-.76,11.93-2.09s4.13-3.11,6.16-5.9c2.09-2.79,2.41-5.21-.63-5.97-1.46-.38-3.3.32-5.46,2.03s-4,3.43-5.59,5.08l-1.14,1.14Z"/>
      <path class="cls-1" d="m190.56,17.82c-3.87,9.97-8.63,19.55-14.28,28.63-1.9,5.14-3.75,10.28-5.59,15.42-2.86,8.32-5.21,15.87-6.98,22.66-1.71,6.79-2.73,11.17-2.92,13.27-.44,4.06.19,6.16,1.14,7.43.44-.06.83-.13,1.21-.13.44,0,2.98,0,1.65,1.02-2.22,1.59-5.59,2.92-8.32,1.97-1.52-.76-2.48-1.9-2.79-3.43s-.32-4.25.13-8.25,1.14-7.3,2.09-9.97c1.02-2.73,2.29-6.35,3.75-10.85.19-.7.44-1.33.63-2.03.63-1.97,1.27-4,1.97-5.97-.44.13-.95.25-1.52.32-4.25,6.09-8.82,11.43-13.71,16.06-4.06,3.87-8.76,7.43-13.77,7.93s-7.62-.25-6.79-5.33c2.41-10.79,8.32-19.11,17.77-24.95,4.13-2.54,9.2-4.32,14.03-3.62,1.27.19,2.41.57,3.36,1.27,2.73-3.75,5.27-7.62,7.74-11.62.7-1.9,1.46-3.81,2.16-5.78.57-1.46,1.08-2.92,1.65-4.51,1.14-3.49,2.48-6.92,4.06-10.22,1.59-3.36,3.81-6.09,6.67-8.32.63-.51,7.24-2.73,6.67-1.02Zm-33.2,46.97c-.57-1.84-1.71-3.11-3.55-3.81-1.52-.38-3.05-.13-4.57.83-1.46.95-2.79,1.9-3.94,2.98l-.19.19c-3.81,3.36-6.79,7.3-8.89,11.93-1.08,2.22-1.9,4.57-2.48,6.98,0,.06,0,.19-.06.32-.19.57-.51,1.71-.57,2.73,0,.44.32.76,1.02.89.7.06,2.35-.7,4.89-2.35,2.6-1.71,5.65-4.57,9.27-8.7,3.17-3.43,6.22-7.43,9.08-12Z"/>
      <path class="cls-1" d="m232.01,17.82c-3.87,9.97-8.63,19.55-14.28,28.63-1.9,5.14-3.75,10.28-5.59,15.42-2.86,8.32-5.21,15.87-6.98,22.66-1.71,6.79-2.73,11.17-2.92,13.27-.44,4.06.19,6.16,1.14,7.43.44-.06.83-.13,1.21-.13.44,0,2.98,0,1.65,1.02-2.22,1.59-5.59,2.92-8.32,1.97-1.52-.76-2.48-1.9-2.79-3.43s-.32-4.25.13-8.25,1.14-7.3,2.09-9.97c1.02-2.73,2.29-6.35,3.75-10.85.19-.7.44-1.33.63-2.03.63-1.97,1.27-4,1.97-5.97-.44.13-.95.25-1.52.32-4.25,6.09-8.82,11.43-13.71,16.06-4.06,3.87-8.76,7.43-13.77,7.93s-7.62-.25-6.79-5.33c2.41-10.79,8.32-19.11,17.77-24.95,4.13-2.54,9.2-4.32,14.03-3.62,1.27.19,2.41.57,3.36,1.27,2.73-3.75,5.27-7.62,7.74-11.62.7-1.9,1.46-3.81,2.16-5.78.57-1.46,1.08-2.92,1.65-4.51,1.14-3.49,2.48-6.92,4.06-10.22,1.59-3.36,3.81-6.09,6.67-8.32.63-.51,7.24-2.73,6.67-1.02Zm-33.2,46.97c-.57-1.84-1.71-3.11-3.55-3.81-1.52-.38-3.05-.13-4.57.83-1.46.95-2.79,1.9-3.94,2.98l-.19.19c-3.81,3.36-6.79,7.3-8.89,11.93-1.08,2.22-1.9,4.57-2.48,6.98,0,.06,0,.19-.06.32-.19.57-.51,1.71-.57,2.73,0,.44.32.76,1.02.89.7.06,2.35-.7,4.89-2.35,2.6-1.71,5.65-4.57,9.27-8.7,3.17-3.43,6.22-7.43,9.08-12Z"/>
      <path class="cls-1" d="m238.29,86.44c-3.81,4.89-8.38,8.95-13.65,12.12-1.84,1.08-4,1.9-6.6,2.48-2.54.51-4.63-.13-6.22-1.97-1.21-1.9-1.65-4.25-1.27-7.11.44-2.86,1.02-5.46,1.71-7.81.13-.44.25-.83.32-1.14,1.84-6.92,4.76-13.33,8.7-19.3.95-1.27,2.67-1.84,4.13-2.03.44-.13,3.55-.19,2.92.89-5.27,8-8.7,16.76-10.16,26.22,0,.19,0,.38-.06.57-.44,2.03-.51,4-.06,5.9.13.51.89,2.16,1.21,2.41.51.19,1.46-.51,2.29-1.08.19-.13.32-.25.44-.32,3.75-2.67,6.98-5.84,9.84-9.46,1.14-1.46,7.93-2.35,6.47-.38Zm-13.08-34.59c-.32-1.71.06-3.36,1.14-4.82,1.08-1.52,2.41-2.6,3.87-3.24.44-.19.89-.38,1.4-.44.63-.51,1.97-.44,4.06.13,1.46.63,2.09,1.52,1.9,2.73-.32,2.29-1.02,3.43-2.54,4.76-1.33,1.33-2.92,2.29-4.7,2.86-2.03.57-4.38.25-5.14-1.97Z"/>
      <path class="cls-1" d="m259.43,98.76c-.89-3.49-.95-7.62-.13-12.25-11.87,13.33-18.54,19.8-19.93,19.36-4-1.02-6.22-2.79-6.6-5.33-.32-2.6-.19-5.27.38-8.12.63-2.86,1.27-5.14,1.9-6.86,3.05-8.12,6.92-15.81,11.62-23.11,1.27-1.97,8.32-2.67,6.6.13-3.62,5.78-6.79,11.74-9.52,17.96-1.33,2.86-2.41,5.97-3.3,9.39-.83,3.36-.89,6.67-.19,9.78l22.47-26.34c1.02-1.52,7.68-2.73,6.86-.38-.38.83-.95,2.54-1.78,5.01-.76,2.48-1.4,5.08-1.9,7.93s-.7,5.9-.63,9.14c.13,3.24,1.21,4.63,3.24,4.19,1.02-.19,2.54-1.27,4.51-3.36,2.03-2.09,4.76-5.71,8.25-10.79,1.27-1.33,2.03-1.14,2.22.57s-1.02,4.44-3.75,8.25-5.01,6.41-6.92,7.87c-1.84,1.4-4,2.03-6.41,1.97-3.75.19-6.03-1.52-6.98-5.01Z"/>
      <path class="cls-1" d="m315.16,62.13c-4.44,19.23-10.47,37.96-18.09,56.18-3.11,7.43-7.49,13.65-13.14,18.66s-12.63,7.55-21.01,7.74c-1.52-.06-1.33-.76-.38-1.59,1.21-1.02,3.43-1.33,5.01-1.33,4-.13,7.55-1.59,10.6-4.32s5.52-5.71,7.49-9.08c3.55-5.9,6.09-12.44,8.44-18.98.13-.32.25-.7.38-1.02,2.09-5.65,4.06-11.43,5.9-17.2-1.46,1.71-2.98,3.3-4.63,4.82-1.84,1.78-3.94,3.43-6.28,4.95-2.35,1.46-4.82,2.22-7.49,2.22-6.03-.32-5.33-7.87-4.89-12.12.63-5.9,2.48-11.74,5.46-17.39,3.05-5.65,7.17-10.16,12.31-13.39,1.59-1.02,3.62-1.84,6.03-2.48,2.41-.7,4.57-.57,6.41.38,1.46.95,2.29,2.29,2.48,4,2.09-.89,5.65-1.27,5.4-.06Zm-11.36,13.46c-.57.19-1.02.25-1.46.32-.25.13-3.49.38-2.79-.63,2.03-3.24,5.14-10.85,1.71-14.16-.63-.76-.76-.7-1.08-.51-.06.06-.19.13-.38.19-.76.44-1.46,1.02-2.16,1.71-.19.13-.32.25-.44.44-1.71,1.59-3.3,3.36-4.7,5.21-5.46,7.43-8.32,15.68-8.57,24.82.06,1.71.32,3.36.76,4.89.06.32.19.63.25.95.06.06.06.13.13.19.13.13.25.25.38.44.38-.32.76-.57,1.21-.83s.89-.51,1.21-.83c3.49-2.92,6.47-6.22,9.08-9.97,2.73-3.87,5.01-7.93,6.86-12.25Z"/>
      <path class="cls-1" d="m414.57,42.45c-4.51,6.79-10.16,12.63-17.08,17.46-6.92,4.76-14.16,8.51-21.84,11.11-4.51,1.59-9.14,2.73-13.9,3.49-.83.19-1.71.32-2.6.51-.44.06-.83.19-1.21.25-.76,2.03-1.46,4.06-2.16,6.16-2.54,7.62-4.7,15.3-6.47,23.11-.95,4-1.71,8.06-2.41,12.12-.57,3.05-.7,6.22,1.78,8.32,1.78,1.59-4.63,4.06-6.6,2.73-2.09-1.97-2.98-4.51-2.73-7.62.19-3.11.76-6.09,1.59-8.95.25-1.02.51-1.97.7-2.79,1.78-8.32,4-16.5,6.6-24.57.89-2.73,1.84-5.4,2.79-8-2.35-.32-4.44-1.78-3.36-4.32,1.08-2.22,3.81-2.98,6.16-2.92,4.44-10.92,9.65-21.46,15.55-31.67,1.21-1.84,8.12-2.73,6.54.06-6.28,10.85-11.74,22.15-16.25,33.9.51-.06,1.02-.19,1.59-.25,1.14-.19,2.29-.38,3.36-.57,4-.83,7.93-1.97,11.74-3.43,6.67-2.6,12.76-6.09,18.41-10.54,9.01-7.05,19.55-18.09,17.27-30.6-.95-4.51-3.05-7.81-6.41-9.9s-7.17-3.36-11.49-3.81c-4.25-.44-8.32-.44-12.19,0-12.89,1.59-23.8,6.67-32.88,15.23-9.01,8.57-14.98,19.04-17.9,31.55-.63,2.6-7.74,3.62-7.11.83,2.09-9.01,5.84-17.2,11.24-24.63s12.06-13.52,20.06-18.15c6.98-4,14.54-6.79,22.66-8.38s16.12-1.52,24.06.06c7.17,1.52,13.58,5.33,16.31,12.38,2.54,7.55.51,15.3-3.81,21.84Z"/>
      <path class="cls-1" d="m420.28,77.93c-2.16,7.43-2.79,11.93-1.97,13.46.89,1.46,1.71,1.9,2.54,1.27,2.35-1.84,5.27-5.84,7.87-5.71,1.08.13,2.92.7,1.9,2.09-3.24,4.63-7.49,8.57-12.57,9.39-2.6.25-4.44-.51-5.52-2.29s-1.65-3.87-1.71-6.22c-.06-2.09.06-4.25.38-6.35-2.09,2.6-4.25,5.08-6.47,7.49-1.71,1.97-3.81,3.94-6.35,5.78-2.48,1.84-5.14,2.6-8,2.29-5.21-1.02-3.55-9.71-2.79-13.39,1.4-6.16,4.13-11.62,8.25-16.44s8.89-8.76,14.28-11.87c1.97-1.21,4.19-2.03,6.6-2.54,2.41-.57,4.7-.25,6.92.83.32.19.57.38.83.57,1.71-1.71,8.12-2.16,6.35.38-4.89,6.67-8.38,13.77-10.54,21.26Zm-11.11-.32c2.98-4,5.97-8,8.82-12.12-.83-.95-.44-1.9.83-2.6,1.71-1.21-.57-3.36-1.71-3.75-1.78-.32-3.55.76-5.14,2.03-.25.19-.51.32-.7.51-3.55,2.48-6.67,5.33-9.39,8.63-5.33,6.54-7.55,13.77-7.74,22.09.44,2.09,1.02,1.65,2.09.38.19-.19.32-.32.51-.44,1.46-1.46,2.92-3.05,4.25-4.63,2.86-3.3,5.59-6.67,8.19-10.09Z"/>
      <path class="cls-1" d="m462.62,73.68c-3.62,1.33-7.3,1.21-9.58-2.29-.44-.76-.76-1.65-.95-2.6-.25-1.21-.7-2.22-1.33-3.05-.95-.95-1.9-1.14-2.79-.44-.83.63-1.59,1.46-2.22,2.48-.13.19-.25.32-.38.51-5.21,6.98-9.33,15.93-12.31,26.85-.19.95-.44,1.84-.63,2.73-.25,1.08-.51,2.09-.7,3.11-.7,2.86-7.81,4-7.17.63.38-2.03.83-4.06,1.4-6.03,3.24-13.39,6.16-25.58,8.7-36.56.63-2.86,7.68-4,7.17-.63-.13.7-.25,1.33-.38,1.97-.13.83-.25,1.59-.38,2.41-.06.38-.25.76-.51,1.08-.06.25-.13.51-.19.83s-.19.7-.25,1.02c2.86-3.75,6.86-6.41,11.68-6.09,2.35.19,4.19,1.27,5.52,3.11.63.95,2.98,6.79,2.29,7.17,1.46-.57,3.75-.95,4.82.38.76,1.46-.32,2.92-1.78,3.43Z"/>
      <path class="cls-1" d="m511.43,37.18c-1.59.76-3.17,1.08-4.89.95-6.6-.57-13.2-.76-19.8-.63-1.71,4.89-3.36,9.78-4.95,14.66-3.24,9.33-5.71,18.92-7.49,28.63-.7,4.51-1.14,9.01-1.21,13.52v.32c-.13,1.78.06,3.55.57,5.27.89,2.48,1.97.83,2.86-.76.13-.19.25-.32.32-.51,1.59-2.86,8.95-2.48,6.79.95-2.09,3.75-5.14,7.17-9.71,7.49-4,0-6.67-2.48-7.62-6.22-1.21-5.27-.51-11.17.32-16.5.06-.32.06-.57.13-.83.83-5.78,2.03-11.43,3.62-17.01,2.48-9.52,5.4-19.04,8.76-28.63-9.71.63-19.3,2.03-28.82,4.13-.76.25-2.79.63-2.79-.51.13-.89,2.79-1.52,3.94-1.78.06,0,.19,0,.25-.06,9.33-2.09,18.79-3.49,28.31-4.25,4.51-12.19,10.22-23.74,17.84-33.9,1.71-2.29,7.68-2.16,6.41,1.65-.7,2.09-1.78,4-3.24,5.65-.32.44-.76.76-1.33.95-4.89,7.93-8.89,16.38-12,25.2,8.19-.32,16.44-.13,24.69.57,1.65.19-.51,1.33-.95,1.65Z"/>
      <path class="cls-1" d="m521.65,60.8c-1.4,9.01-3.3,17.9-5.65,26.66-.57,2.22-1.08,4.51-1.65,6.79-2.48,9.78-5.97,19.17-10.6,28.12l-.76,1.52c-2.48,5.27-5.46,10.73-9.97,14.28-2.92,2.22-6.22,3.49-9.9,3.94s-7.05-.44-10.09-2.6c-1.21-1.21,4.82-3.75,6.67-2.54,2.92,2.03,5.4,2.22,7.49.63s3.87-3.68,5.33-6.35c3.49-5.97,6.54-12.19,9.14-18.66,2.98-7.68,5.33-15.49,7.17-23.55.06-.13.06-.25.13-.44.7-2.54,1.33-5.08,1.9-7.62-.06.13-.19.25-.32.38-.19.32-.44.57-.63.83-2.16,2.6-4.82,5.01-8,7.36s-6.47,3.62-9.97,3.81c-2.6-.13-4.25-1.27-4.95-3.43-.63-2.22-.76-4.7-.38-7.43s.83-5.01,1.27-6.73c.83-3.55,1.84-7.05,3.05-10.47.06-.32.19-.7.32-1.14.25-1.21.63-2.54,1.4-3.3,1.08-1.08,3.11-1.78,4.7-1.78.83,0,2.79.32,1.78,1.46.38-.38.19.13-.06.51-.06.13-.13.25-.13.32-.32.83-.57,1.59-.83,2.35-.83,2.35-1.52,4.63-2.22,6.98-.06.44-.19.89-.38,1.33-.83,2.54-1.46,5.4-2.03,8.63-.51,3.17-.19,5.84.95,7.93.13.38.25.76.44,1.14.83-.44,1.65-.95,2.41-1.52,1.46-1.08,2.79-2.22,4.06-3.49,2.16-2.22,4.06-4.57,5.78-7.17,3.05-4.95,5.52-10.16,7.49-15.62.7-1.65,7.24-3.24,7.05-1.14Z"/>
    </g>
  </g>
</svg>